<svg xmlns="http://www.w3.org/2000/svg" version="1.1" xmlns:xlink="http://www.w3.org/1999/xlink" xmlns:svgjs="http://svgjs.dev/svgjs" width="1500" height="401" viewBox="0 0 1500 401"><g transform="matrix(1,0,0,1,-0.9090909090909918,-0.863005550620926)"><svg viewBox="0 0 396 106" data-background-color="#000000" preserveAspectRatio="xMidYMid meet" height="401" width="1500" xmlns="http://www.w3.org/2000/svg" xmlns:xlink="http://www.w3.org/1999/xlink"><g id="tight-bounds" transform="matrix(1,0,0,1,0.2400000000000091,0.2281261555257288)"><svg viewBox="0 0 395.52 105.54374768894857" height="105.54374768894857" width="395.52"><g><svg viewBox="0 0 593.4547513883193 158.36225360370267" height="105.54374768894857" width="395.52"><g transform="matrix(1,0,0,1,0,21.886534325837346)"><svg viewBox="0 0 395.52 114.58918495202798" height="114.58918495202798" width="395.52"><g id="textblocktransform"><svg viewBox="0 0 395.52 114.58918495202798" height="114.58918495202798" width="395.52" id="textblock"><g><svg viewBox="0 0 395.52 61.80393088094985" height="61.80393088094985" width="395.52"><g transform="matrix(1,0,0,1,0,0)"><svg width="395.52" viewBox="1 -35.5 230.28 35.99" height="61.80393088094985" data-palette-color="url(#399294a9-1766-4104-8cb8-4fd4273f13f6)"></svg></g></svg></g><g transform="matrix(1,0,0,1,277.489674287363,76.39435566760096)"><svg viewBox="0 0 118.03032571263695 38.19482928442701" height="38.19482928442701" width="118.03032571263695"><g transform="matrix(1,0,0,1,0,0)"><svg width="118.03032571263695" viewBox="1.85 -35.5 142.14000000000001 46" height="38.19482928442701" data-palette-color="url(#7dcf5911-11a9-421d-a207-4f9184c17acf)"></svg></g></svg></g></svg></g></svg></g><g transform="matrix(1,0,0,1,410.1104247866511,0)"><svg viewBox="0 0 183.3443266016682 158.36225360370267" height="158.36225360370267" width="183.3443266016682"><g><svg xmlns="http://www.w3.org/2000/svg" xmlns:xlink="http://www.w3.org/1999/xlink" version="1.1" x="0" y="0" viewBox="5 10.791 85.00000024073253 73.41809721596914" enable-background="new 0 0 95 95" xml:space="preserve" height="158.36225360370267" width="183.3443266016682" class="icon-icon-0" data-fill-palette-color="accent" id="icon-0"></svg></g></svg></g></svg></g><defs></defs><mask id="9b85cc3e-26ee-468a-8dcf-1ea769049a93"><g id="SvgjsG2931"><svg viewBox="0 0 395.52 105.54374768894857" height="105.54374768894857" width="395.52"><g><svg viewBox="0 0 593.4547513883193 158.36225360370267" height="105.54374768894857" width="395.52"><g transform="matrix(1,0,0,1,0,21.886534325837346)"><svg viewBox="0 0 395.52 114.58918495202798" height="114.58918495202798" width="395.52"><g id="SvgjsG2930"><svg viewBox="0 0 395.52 114.58918495202798" height="114.58918495202798" width="395.52" id="SvgjsSvg2929"><g><svg viewBox="0 0 395.52 61.80393088094985" height="61.80393088094985" width="395.52"><g transform="matrix(1,0,0,1,0,0)"><svg width="395.52" viewBox="1 -35.5 230.28 35.99" height="61.80393088094985" data-palette-color="url(#399294a9-1766-4104-8cb8-4fd4273f13f6)"><path d="M20.85-32.01L12.5-32.01 12.5 0 9.35 0 9.35-32.01 1-32.01 1-35.01 20.85-35.01 20.85-32.01ZM39.55-6.86L39.55-6.86Q39.55-5.35 38.97-4 38.4-2.66 37.4-1.66 36.4-0.66 35.06-0.09 33.71 0.49 32.2 0.49L32.2 0.49 30.2 0.49Q28.68 0.49 27.34-0.09 26-0.66 25-1.66 24-2.66 23.42-4 22.85-5.35 22.85-6.86L22.85-6.86 22.85-18.14Q22.85-19.65 23.42-21 24-22.34 25-23.34 26-24.34 27.34-24.91 28.68-25.49 30.2-25.49L30.2-25.49 32.2-25.49Q33.71-25.49 35.06-24.91 36.4-24.34 37.4-23.34 38.4-22.34 38.97-21 39.55-19.65 39.55-18.14L39.55-18.14 39.55-12.26 25.85-12.26 25.85-6.69Q25.85-5.79 26.19-4.99 26.54-4.2 27.12-3.61 27.71-3.03 28.5-2.69 29.29-2.34 30.2-2.34L30.2-2.34 32.2-2.34Q33.1-2.34 33.9-2.69 34.69-3.03 35.28-3.61 35.86-4.2 36.2-4.99 36.55-5.79 36.55-6.69L36.55-6.69 36.55-8.35 39.55-7.86 39.55-6.86ZM36.55-14.6L36.55-18.31Q36.55-19.21 36.2-20.01 35.86-20.8 35.28-21.39 34.69-21.97 33.9-22.31 33.1-22.66 32.2-22.66L32.2-22.66 30.2-22.66Q29.29-22.66 28.5-22.31 27.71-21.97 27.12-21.39 26.54-20.8 26.19-20.01 25.85-19.21 25.85-18.31L25.85-18.31 25.85-14.6 36.55-14.6ZM62.25 0L61.25 0 59.59-2.49Q58.56-1.15 57.03-0.33 55.49 0.49 53.66 0.49L53.66 0.49 52.9 0.49Q51.39 0.49 50.04-0.09 48.7-0.66 47.7-1.66 46.7-2.66 46.13-4 45.55-5.35 45.55-6.86L45.55-6.86 45.55-7.1Q45.55-8.62 46.13-9.96 46.7-11.3 47.7-12.3 48.7-13.31 50.04-13.88 51.39-14.45 52.9-14.45L52.9-14.45 59.25-14.45 59.25-18.31Q59.25-19.21 58.91-20.01 58.56-20.8 57.98-21.39 57.39-21.97 56.6-22.31 55.81-22.66 54.9-22.66L54.9-22.66 53.14-22.66Q52.24-22.66 51.45-22.31 50.65-21.97 50.07-21.39 49.48-20.8 49.14-20.01 48.8-19.21 48.8-18.31L48.8-18.31 48.8-17.41 45.8-17.9 45.8-18.14Q45.8-19.65 46.37-21 46.94-22.34 47.94-23.34 48.95-24.34 50.29-24.91 51.63-25.49 53.14-25.49L53.14-25.49 54.9-25.49Q56.42-25.49 57.76-24.91 59.1-24.34 60.1-23.34 61.1-22.34 61.68-21 62.25-19.65 62.25-18.14L62.25-18.14 62.25 0ZM59.25-6.69L59.25-12.11 52.9-12.11Q52-12.11 51.2-11.77 50.41-11.43 49.82-10.83 49.24-10.23 48.9-9.44 48.55-8.64 48.55-7.74L48.55-7.74 48.55-6.69Q48.55-5.79 48.9-4.99 49.24-4.2 49.82-3.61 50.41-3.03 51.2-2.69 52-2.34 52.9-2.34L52.9-2.34 54.9-2.34Q55.81-2.34 56.6-2.69 57.39-3.03 57.98-3.61 58.56-4.2 58.91-4.99 59.25-5.79 59.25-6.69L59.25-6.69ZM97.65 0L94.65 0 94.65-18.31Q94.65-19.21 94.3-20.01 93.96-20.8 93.38-21.39 92.79-21.97 92-22.31 91.2-22.66 90.3-22.66L90.3-22.66 88.81-22.66Q87.91-22.66 87.11-22.31 86.32-21.97 85.72-21.39 85.12-20.8 84.78-20.01 84.44-19.21 84.44-18.31L84.44-18.31 84.44 0 81.46 0 81.46-18.31Q81.46-19.21 81.12-20.01 80.78-20.8 80.18-21.39 79.58-21.97 78.79-22.31 78-22.66 77.09-22.66L77.09-22.66 75.6-22.66Q74.7-22.66 73.91-22.31 73.11-21.97 72.53-21.39 71.94-20.8 71.6-20.01 71.26-19.21 71.26-18.31L71.26-18.31 71.26 0 68.25 0 68.25-25 69.26-25 70.89-22.46Q71.92-23.85 73.47-24.67 75.02-25.49 76.85-25.49L76.85-25.49 77.09-25.49Q79.22-25.49 80.93-24.44 82.63-23.39 83.56-21.66L83.56-21.66Q84.03-22.51 84.71-23.22 85.39-23.93 86.22-24.43 87.05-24.93 88.03-25.21 89.01-25.49 90.06-25.49L90.06-25.49 90.3-25.49Q91.81-25.49 93.16-24.91 94.5-24.34 95.5-23.34 96.5-22.34 97.08-21 97.65-19.65 97.65-18.14L97.65-18.14 97.65 0ZM123.84-9.16L123.84-8.11Q123.84-6.32 123.12-4.76 122.4-3.2 121.19-2.03 119.99-0.85 118.39-0.18 116.79 0.49 115 0.49L115 0.49 112.49 0.49Q110.71 0.49 109.11-0.18 107.51-0.85 106.3-2.03 105.09-3.2 104.37-4.76 103.65-6.32 103.65-8.11L103.65-8.11 103.65-9.5 106.8-10.01 106.8-8.11Q106.8-6.93 107.28-5.92 107.75-4.91 108.56-4.14 109.37-3.37 110.43-2.93 111.49-2.49 112.66-2.49L112.66-2.49 114.86-2.49Q116.03-2.49 117.08-2.93 118.13-3.37 118.94-4.14 119.74-4.91 120.22-5.92 120.69-6.93 120.69-8.11L120.69-8.11 120.69-9.16Q120.69-10.96 119.99-12.16 119.28-13.35 118.11-14.2 116.93-15.04 115.46-15.63 113.98-16.21 112.42-16.8 110.85-17.38 109.38-18.09 107.9-18.8 106.73-19.86 105.56-20.92 104.85-22.46 104.14-24 104.14-26.25L104.14-26.25 104.14-26.9Q104.14-28.69 104.81-30.25 105.48-31.81 106.66-32.98 107.83-34.16 109.4-34.83 110.98-35.5 112.76-35.5L112.76-35.5 115-35.5Q116.79-35.5 118.35-34.83 119.91-34.16 121.08-32.98 122.26-31.81 122.93-30.25 123.6-28.69 123.6-26.9L123.6-26.9 123.6-26 120.45-25.49 120.45-26.9Q120.45-28.08 120.01-29.09 119.57-30.1 118.81-30.86 118.06-31.62 117.04-32.06 116.03-32.5 114.86-32.5L114.86-32.5 112.91-32.5Q111.73-32.5 110.72-32.06 109.71-31.62 108.94-30.86 108.17-30.1 107.73-29.09 107.29-28.08 107.29-26.9L107.29-26.9 107.29-26.25Q107.29-24.56 108-23.41 108.71-22.27 109.88-21.45 111.05-20.63 112.53-20.03 114-19.43 115.57-18.81 117.13-18.19 118.61-17.44 120.08-16.7 121.25-15.61 122.43-14.53 123.13-12.96 123.84-11.4 123.84-9.16L123.84-9.16ZM147.81 0L143.91 0 133.7-12.5 143.91-25 147.81-25 137.37-12.5 147.81 0ZM133.12 0L130.11 0 130.11-35.01 133.12-35.01 133.12 0ZM168.52-6.86L168.52-6.86Q168.52-5.35 167.94-4 167.37-2.66 166.37-1.66 165.37-0.66 164.02-0.09 162.68 0.49 161.17 0.49L161.17 0.49 159.16 0.49Q157.65 0.49 156.31-0.09 154.97-0.66 153.96-1.66 152.96-2.66 152.39-4 151.82-5.35 151.82-6.86L151.82-6.86 151.82-18.14Q151.82-19.65 152.39-21 152.96-22.34 153.96-23.34 154.97-24.34 156.31-24.91 157.65-25.49 159.16-25.49L159.16-25.49 161.17-25.49Q162.68-25.49 164.02-24.91 165.37-24.34 166.37-23.34 167.37-22.34 167.94-21 168.52-19.65 168.52-18.14L168.52-18.14 168.52-12.26 154.82-12.26 154.82-6.69Q154.82-5.79 155.16-4.99 155.5-4.2 156.09-3.61 156.67-3.03 157.47-2.69 158.26-2.34 159.16-2.34L159.16-2.34 161.17-2.34Q162.07-2.34 162.86-2.69 163.66-3.03 164.24-3.61 164.83-4.2 165.17-4.99 165.51-5.79 165.51-6.69L165.51-6.69 165.51-8.35 168.52-7.86 168.52-6.86ZM165.51-14.6L165.51-18.31Q165.51-19.21 165.17-20.01 164.83-20.8 164.24-21.39 163.66-21.97 162.86-22.31 162.07-22.66 161.17-22.66L161.17-22.66 159.16-22.66Q158.26-22.66 157.47-22.31 156.67-21.97 156.09-21.39 155.5-20.8 155.16-20.01 154.82-19.21 154.82-18.31L154.82-18.31 154.82-14.6 165.51-14.6ZM186.36 0L183.63 0Q182.26 0 181.05-0.51 179.84-1.03 178.95-1.93 178.06-2.83 177.53-4.03 177.01-5.22 177.01-6.59L177.01-6.59 177.01-22.14 172.52-22.14 172.52-25 177.01-25 177.01-31.01 180.01-31.49 180.01-25 186.36-25 186.36-22.14 180.01-22.14 180.01-6.45Q180.01-5.69 180.29-5.04 180.57-4.39 181.06-3.91 181.55-3.42 182.21-3.14 182.87-2.86 183.63-2.86L183.63-2.86 186.36-2.86 186.36 0ZM208.57-6.86L208.57-6.86Q208.57-5.35 208-4 207.43-2.66 206.43-1.66 205.42-0.66 204.08-0.09 202.74 0.49 201.23 0.49L201.23 0.49 199.22 0.49Q197.71 0.49 196.37-0.09 195.02-0.66 194.02-1.66 193.02-2.66 192.45-4 191.87-5.35 191.87-6.86L191.87-6.86 191.87-18.14Q191.87-19.65 192.45-21 193.02-22.34 194.02-23.34 195.02-24.34 196.37-24.91 197.71-25.49 199.22-25.49L199.22-25.49 201.23-25.49Q202.74-25.49 204.08-24.91 205.42-24.34 206.43-23.34 207.43-22.34 208-21 208.57-19.65 208.57-18.14L208.57-18.14 208.57-17.14 205.57-16.65 205.57-18.31Q205.57-19.21 205.23-20.01 204.89-20.8 204.3-21.39 203.72-21.97 202.92-22.31 202.13-22.66 201.23-22.66L201.23-22.66 199.22-22.66Q198.32-22.66 197.53-22.31 196.73-21.97 196.15-21.39 195.56-20.8 195.22-20.01 194.88-19.21 194.88-18.31L194.88-18.31 194.88-6.69Q194.88-5.79 195.22-4.99 195.56-4.2 196.15-3.61 196.73-3.03 197.53-2.69 198.32-2.34 199.22-2.34L199.22-2.34 201.23-2.34Q202.13-2.34 202.92-2.69 203.72-3.03 204.3-3.61 204.89-4.2 205.23-4.99 205.57-5.79 205.57-6.69L205.57-6.69 205.57-8.35 208.57-7.86 208.57-6.86ZM231.28 0L228.27 0 228.27-18.31Q228.27-19.21 227.93-20.01 227.59-20.8 227-21.39 226.42-21.97 225.62-22.31 224.83-22.66 223.93-22.66L223.93-22.66 221.93-22.66Q221.02-22.66 220.23-22.31 219.44-21.97 218.85-21.39 218.26-20.8 217.92-20.01 217.58-19.21 217.58-18.31L217.58-18.31 217.58 0 214.58 0 214.58-35.01 217.58-35.01 217.58-22.9Q218.61-24.12 220.05-24.8 221.49-25.49 223.17-25.49L223.17-25.49 223.93-25.49Q225.44-25.49 226.78-24.91 228.13-24.34 229.13-23.34 230.13-22.34 230.7-21 231.28-19.65 231.28-18.14L231.28-18.14 231.28 0Z" opacity="1" transform="matrix(1,0,0,1,0,0)" fill="white" class="wordmark-text-0" id="SvgjsPath2928"></path></svg></g></svg></g><g transform="matrix(1,0,0,1,277.489674287363,76.39435566760096)"><svg viewBox="0 0 118.03032571263695 38.19482928442701" height="38.19482928442701" width="118.03032571263695"><g transform="matrix(1,0,0,1,0,0)"><svg width="118.03032571263695" viewBox="1.85 -35.5 142.14000000000001 46" height="38.19482928442701" data-palette-color="url(#7dcf5911-11a9-421d-a207-4f9184c17acf)"><path d="M4.7-8.9Q4.85-7.2 5.98-5.65 7.1-4.1 9.08-3.13 11.05-2.15 13.6-2.15L13.6-2.15Q17.45-2.15 20.03-3.88 22.6-5.6 22.6-9.35L22.6-9.35Q22.6-11.55 21.35-13.03 20.1-14.5 18.25-15.38 16.4-16.25 13.2-17.4L13.2-17.4Q9.75-18.6 7.68-19.63 5.6-20.65 4.17-22.4 2.75-24.15 2.75-26.9L2.75-26.9Q2.75-29.1 4-31.08 5.25-33.05 7.78-34.27 10.3-35.5 14-35.5L14-35.5Q16.45-35.5 18.05-35.15 19.65-34.8 21.3-34L21.3-34 20.45-31.35Q17.6-32.8 14.1-32.8L14.1-32.8Q10.25-32.8 7.95-31.2 5.65-29.6 5.65-26.75L5.65-26.75Q5.65-24.95 6.8-23.73 7.95-22.5 9.63-21.75 11.3-21 14.3-19.95L14.3-19.95Q17.95-18.7 20.2-17.63 22.45-16.55 24.03-14.58 25.6-12.6 25.6-9.6L25.6-9.6Q25.6-5 22.68-2.23 19.75 0.55 13.65 0.55L13.65 0.55Q9.95 0.55 7.33-0.83 4.7-2.2 3.33-4.38 1.95-6.55 1.85-8.9L1.85-8.9 4.7-8.9ZM46.4 0L36.8-15.85 34.2-13.6 34.2 0 31.4 0 31.4-35 34.2-35 34.2-16.75 44.2-26 46.2-24.05 38.8-17.6Q42.2-11.95 49.75 0L49.75 0 46.4 0ZM67.05-1.75Q65.25-0.6 62.95 0 60.65 0.6 58.34 0.6L58.34 0.6Q54.65 0.6 52.47-1.23 50.3-3.05 50.3-6.7L50.3-6.7 50.3-16.95Q50.3-21 52.82-23.25 55.34-25.5 59.5-25.5L59.5-25.5Q63.65-25.5 65.97-23.28 68.3-21.05 68.3-17.1L68.3-17.1 68.3-10.6 53.09-9.75 53.09-6.7Q53.09-4.3 54.65-3.1 56.2-1.9 58.7-1.9L58.7-1.9Q62.2-1.9 65.95-3.9L65.95-3.9 67.05-1.75ZM65.5-17.45Q65.5-20.55 63.55-21.83 61.59-23.1 59.45-23.1L59.45-23.1Q56.7-23.1 54.9-21.6 53.09-20.1 53.09-16.9L53.09-16.9 53.09-12.5 65.5-13.1 65.5-17.45ZM77.74 0.65Q74.94-0.15 73.69-1.9 72.44-3.65 72.44-6.6L72.44-6.6 72.44-35 75.24-35 75.24-25.05 81.24-25.05 80.04-22.4 75.24-22.4 75.24-6.6Q75.24-2.6 78.54-1.5L78.54-1.5 77.74 0.65ZM100.29-0.3Q97.19 0.5 94.29 0.5L94.29 0.5Q91.59 0.5 89.79-0.1L89.79-0.1Q86.84-1.1 85.52-3.18 84.19-5.25 84.19-9L84.19-9 84.19-15.4Q84.19-20.35 86.79-22.93 89.39-25.5 93.49-25.5L93.49-25.5Q96.74-25.5 100.19-23.9L100.19-23.9 99.39-21.85Q96.54-23 93.89-23L93.89-23Q90.79-23 88.89-21.23 86.99-19.45 86.99-15.7L86.99-15.7 86.99-8.45Q86.99-5 89.07-3.45 91.14-1.9 94.59-1.9L94.59-1.9Q96.84-1.9 99.69-2.55L99.69-2.55 100.29-0.3ZM118.74 0L118.74-17.15Q118.74-20.2 116.96-21.58 115.19-22.95 112.39-22.95L112.39-22.95Q110.69-22.95 108.94-22.48 107.19-22 105.84-21.25L105.84-21.25 105.84 0 103.04 0 103.04-35 105.84-35 105.84-23.7Q107.09-24.55 108.84-25.03 110.59-25.5 112.49-25.5L112.49-25.5Q115.09-25.5 117.24-24.55L117.24-24.55Q119.24-23.65 120.36-21.85 121.49-20.05 121.49-17.3L121.49-17.3 121.49 0 118.74 0ZM136.29 8.35Q139.64 7.1 139.64 3.15L139.64 3.15 139.64-2.45Q138.69-0.85 136.79-0.13 134.89 0.6 132.69 0.6L132.69 0.6Q128.29 0.6 125.91-1.78 123.54-4.15 123.54-8.8L123.54-8.8 123.54-25.05 126.24-25.05 126.24-8.3Q126.24-5.1 127.99-3.53 129.74-1.95 132.69-1.95L132.69-1.95Q135.79-1.95 137.69-3.5 139.59-5.05 139.59-8.3L139.59-8.3 139.59-18.15Q139.59-20.55 139.74-21.73 139.89-22.9 140.66-23.93 141.44-24.95 143.24-25.5L143.24-25.5 143.99-23.6Q142.29-22.85 142.29-20.1L142.29-20.1 142.29 3.05Q142.29 6.1 141.09 7.85 139.89 9.6 137.04 10.5L137.04 10.5 136.29 8.35Z" opacity="1" transform="matrix(1,0,0,1,0,0)" fill="black" class="slogan-text-1" id="SvgjsPath2927"></path></svg></g></svg></g></svg></g></svg></g><g transform="matrix(1,0,0,1,410.1104247866511,0)"><svg viewBox="0 0 183.3443266016682 158.36225360370267" height="158.36225360370267" width="183.3443266016682"><g><svg xmlns="http://www.w3.org/2000/svg" xmlns:xlink="http://www.w3.org/1999/xlink" version="1.1" x="0" y="0" viewBox="5 10.791 85.00000024073253 73.41809721596914" enable-background="new 0 0 95 95" xml:space="preserve" height="158.36225360370267" width="183.3443266016682" class="icon-icon-0" data-fill-palette-color="accent" id="SvgjsSvg2926"><g fill="black"><path d="M83.44 79.794L73.397 54.166H79.706A2.126 2.126 0 0 0 79.706 49.915H71.732L68.919 42.734A14.2 14.2 0 0 0 73.655 32.126C73.655 25.399 68.987 19.772 62.721 18.282V12.172C62.721 11.41 62.105 10.791 61.347 10.791H57.497C56.735 10.791 56.121 11.41 56.121 12.172V18.282C49.851 19.772 45.185 25.4 45.185 32.126A14.2 14.2 0 0 0 49.754 42.579L46.88 49.915H38.96A2.126 2.126 0 0 0 38.96 54.166H45.216L35.17 79.794C33.128 85.346 33.898 85.712 36.881 80.607L51.136 54.166H54.229A5.3 5.3 0 0 0 59.337 58.062C61.772 58.062 63.823 56.409 64.44 54.166H67.472L81.729 80.607C84.712 85.712 85.484 85.346 83.44 79.794M59.419 23.657A8.47 8.47 0 0 1 67.891 32.127 8.47 8.47 0 0 1 63.49 39.56L62.609 39.98A8.4 8.4 0 0 1 59.419 40.604C54.743 40.604 50.947 36.81 50.947 32.127 50.947 27.446 54.744 23.657 59.419 23.657M63.798 49.916A5.28 5.28 0 0 0 59.336 47.466 5.27 5.27 0 0 0 54.872 49.916H53.425L55.622 45.85A14.4 14.4 0 0 0 63.019 45.906L65.182 49.916z" fill="black"></path><path d="M10.088 22.674V73.06H84.912V22.674zM18.793 71.958H11.189V65.505H18.793zM18.793 65.432H11.189V58.612H18.793zM18.793 58.245H11.189V51.424H18.793zM18.793 51.351H11.189V44.384H18.793zM18.793 44.31H11.189V37.49H18.793zM18.793 37.123H11.189V30.302H18.793zM18.793 30.229H11.189V23.776H18.793zM26.985 71.958H18.867V65.505H26.985zM26.985 65.432H18.867V58.612H26.985zM26.985 58.245H18.867V51.424H26.985zM26.985 51.351H18.867V44.384H26.985zM26.985 44.31H18.867V37.49H26.985zM26.985 37.123H18.867V30.302H26.985zM18.867 23.776H26.985V30.229H18.867M34.662 71.958H27.058V65.505H34.662zM34.662 65.432H27.058V58.612H34.662zM34.662 58.245H27.058V51.424H34.662zM34.662 51.351H27.058V44.384H34.662zM34.662 44.31H27.058V37.49H34.662zM34.662 37.123H27.058V30.302H34.662zM34.662 30.229H27.058V23.776H34.662zM43.367 71.958H35.763V65.505H43.367zM43.367 65.432H35.763V58.612H43.367zM43.367 58.245H35.763V51.424H43.367zM43.367 51.351H35.763V44.384H43.367zM43.367 44.31H35.763V37.49H43.367zM43.367 37.123H35.763V30.302H43.367zM43.367 30.229H35.763V23.776H43.367zM51.559 71.958H43.441V65.505H51.559zM51.559 65.432H43.441V58.612H51.559zM51.559 58.245H43.441V51.424H51.559zM51.559 51.351H43.441V44.384H51.559zM51.559 44.31H43.441V37.49H51.559zM51.559 37.123H43.441V30.302H51.559zM51.559 30.229H43.441V23.776H51.559zM59.236 71.958H51.632V65.505H59.236zM59.236 65.432H51.632V58.612H59.236zM59.236 58.245H51.632V51.424H59.236zM59.236 51.351H51.632V44.384H59.236zM59.236 44.31H51.632V37.49H59.236zM59.236 37.123H51.632V30.302H59.236zM59.236 30.229H51.632V23.776H59.236zM67.942 71.958H60.338V65.505H67.942zM67.942 65.432H60.338V58.612H67.942zM67.942 58.245H60.338V51.424H67.942zM67.942 51.351H60.338V44.384H67.942zM67.942 44.31H60.338V37.49H67.942zM67.942 37.123H60.338V30.302H67.942zM67.942 30.229H60.338V23.776H67.942zM76.133 71.958H68.015V65.505H76.133zM76.133 65.432H68.015V58.612H76.133zM76.133 58.245H68.015V51.424H76.133zM76.133 51.351H68.015V44.384H76.133zM76.133 44.31H68.015V37.49H76.133zM76.133 37.123H68.015V30.302H76.133zM76.133 30.229H68.015V23.776H76.133zM83.811 71.958H76.207V65.505H83.811zM83.811 65.432H76.207V58.612H83.811zM83.811 58.245H76.207V51.424H83.811zM83.811 51.351H76.207V44.384H83.811zM83.811 44.31H76.207V37.49H83.811zM83.811 37.123H76.207V30.302H83.811zM83.811 30.229H76.207V23.776H83.811z" fill="black"></path><polygon points="43.232,75.792 42.243,77.627 76.369,77.627 75.379,75.792  " fill="black"></polygon><path d="M87.92 18.107H69.942A18 18 0 0 1 72.016 19.942H87.92C88.055 19.942 88.165 20.052 88.165 20.187V75.546C88.165 75.681 88.055 75.791 87.92 75.791H85.421L86.14 77.626H87.92C89.067 77.626 90 76.693 90 75.546V20.188A2.08 2.08 0 0 0 87.92 18.107" fill="black"></path><path d="M6.835 75.547V20.188C6.835 20.053 6.945 19.943 7.08 19.943H46.822A17.5 17.5 0 0 1 48.897 18.108H7.08A2.08 2.08 0 0 0 5 20.188V75.547C5 76.694 5.933 77.627 7.08 77.627H32.471L33.19 75.792H7.08A0.245 0.245 0 0 1 6.835 75.547" fill="black"></path></g></svg></g></svg></g></svg></g><defs><mask></mask></defs></svg><rect width="395.52" height="105.54374768894857" fill="black" stroke="none" visibility="hidden"></rect></g></mask><linearGradient x1="0" x2="1" y1="0.548" y2="0.55" id="399294a9-1766-4104-8cb8-4fd4273f13f6"><stop stop-color="#ff6cab" offset="0"></stop><stop stop-color="#7366ff" offset="1"></stop></linearGradient><rect width="395.52" height="105.54374768894857" fill="url(#399294a9-1766-4104-8cb8-4fd4273f13f6)" mask="url(#9b85cc3e-26ee-468a-8dcf-1ea769049a93)" data-fill-palette-color="primary"></rect><mask id="7ab4bf4e-226b-4ec3-b59b-1f7619f1b483"><g id="SvgjsG2942"><svg viewBox="0 0 395.52 105.54374768894857" height="105.54374768894857" width="395.52"><g><svg viewBox="0 0 593.4547513883193 158.36225360370267" height="105.54374768894857" width="395.52"><g transform="matrix(1,0,0,1,0,21.886534325837346)"><svg viewBox="0 0 395.52 114.58918495202798" height="114.58918495202798" width="395.52"><g id="SvgjsG2941"><svg viewBox="0 0 395.52 114.58918495202798" height="114.58918495202798" width="395.52" id="SvgjsSvg2940"><g><svg viewBox="0 0 395.52 61.80393088094985" height="61.80393088094985" width="395.52"><g transform="matrix(1,0,0,1,0,0)"><svg width="395.52" viewBox="1 -35.5 230.28 35.99" height="61.80393088094985" data-palette-color="url(#399294a9-1766-4104-8cb8-4fd4273f13f6)"></svg></g></svg></g><g transform="matrix(1,0,0,1,277.489674287363,76.39435566760096)"><svg viewBox="0 0 118.03032571263695 38.19482928442701" height="38.19482928442701" width="118.03032571263695"><g transform="matrix(1,0,0,1,0,0)"><svg width="118.03032571263695" viewBox="1.85 -35.5 142.14000000000001 46" height="38.19482928442701" data-palette-color="url(#7dcf5911-11a9-421d-a207-4f9184c17acf)"><path d="M4.7-8.9Q4.85-7.2 5.98-5.65 7.1-4.1 9.08-3.13 11.05-2.15 13.6-2.15L13.6-2.15Q17.45-2.15 20.03-3.88 22.6-5.6 22.6-9.35L22.6-9.35Q22.6-11.55 21.35-13.03 20.1-14.5 18.25-15.38 16.4-16.25 13.2-17.4L13.2-17.4Q9.75-18.6 7.68-19.63 5.6-20.65 4.17-22.4 2.75-24.15 2.75-26.9L2.75-26.9Q2.75-29.1 4-31.08 5.25-33.05 7.78-34.27 10.3-35.5 14-35.5L14-35.5Q16.45-35.5 18.05-35.15 19.65-34.8 21.3-34L21.3-34 20.45-31.35Q17.6-32.8 14.1-32.8L14.1-32.8Q10.25-32.8 7.95-31.2 5.65-29.6 5.65-26.75L5.65-26.75Q5.65-24.95 6.8-23.73 7.95-22.5 9.63-21.75 11.3-21 14.3-19.95L14.3-19.95Q17.95-18.7 20.2-17.63 22.45-16.55 24.03-14.58 25.6-12.6 25.6-9.6L25.6-9.6Q25.6-5 22.68-2.23 19.75 0.55 13.65 0.55L13.65 0.55Q9.95 0.55 7.33-0.83 4.7-2.2 3.33-4.38 1.95-6.55 1.85-8.9L1.85-8.9 4.7-8.9ZM46.4 0L36.8-15.85 34.2-13.6 34.2 0 31.4 0 31.4-35 34.2-35 34.2-16.75 44.2-26 46.2-24.05 38.8-17.6Q42.2-11.95 49.75 0L49.75 0 46.4 0ZM67.05-1.75Q65.25-0.6 62.95 0 60.65 0.6 58.34 0.6L58.34 0.6Q54.65 0.6 52.47-1.23 50.3-3.05 50.3-6.7L50.3-6.7 50.3-16.95Q50.3-21 52.82-23.25 55.34-25.5 59.5-25.5L59.5-25.5Q63.65-25.5 65.97-23.28 68.3-21.05 68.3-17.1L68.3-17.1 68.3-10.6 53.09-9.75 53.09-6.7Q53.09-4.3 54.65-3.1 56.2-1.9 58.7-1.9L58.7-1.9Q62.2-1.9 65.95-3.9L65.95-3.9 67.05-1.75ZM65.5-17.45Q65.5-20.55 63.55-21.83 61.59-23.1 59.45-23.1L59.45-23.1Q56.7-23.1 54.9-21.6 53.09-20.1 53.09-16.9L53.09-16.9 53.09-12.5 65.5-13.1 65.5-17.45ZM77.74 0.65Q74.94-0.15 73.69-1.9 72.44-3.65 72.44-6.6L72.44-6.6 72.44-35 75.24-35 75.24-25.05 81.24-25.05 80.04-22.4 75.24-22.4 75.24-6.6Q75.24-2.6 78.54-1.5L78.54-1.5 77.74 0.65ZM100.29-0.3Q97.19 0.5 94.29 0.5L94.29 0.5Q91.59 0.5 89.79-0.1L89.79-0.1Q86.84-1.1 85.52-3.18 84.19-5.25 84.19-9L84.19-9 84.19-15.4Q84.19-20.35 86.79-22.93 89.39-25.5 93.49-25.5L93.49-25.5Q96.74-25.5 100.19-23.9L100.19-23.9 99.39-21.85Q96.54-23 93.89-23L93.89-23Q90.79-23 88.89-21.23 86.99-19.45 86.99-15.7L86.99-15.7 86.99-8.45Q86.99-5 89.07-3.45 91.14-1.9 94.59-1.9L94.59-1.9Q96.84-1.9 99.69-2.55L99.69-2.55 100.29-0.3ZM118.74 0L118.74-17.15Q118.74-20.2 116.96-21.58 115.19-22.95 112.39-22.95L112.39-22.95Q110.69-22.95 108.94-22.48 107.19-22 105.84-21.25L105.84-21.25 105.84 0 103.04 0 103.04-35 105.84-35 105.84-23.7Q107.09-24.55 108.84-25.03 110.59-25.5 112.49-25.5L112.49-25.5Q115.09-25.5 117.24-24.55L117.24-24.55Q119.24-23.65 120.36-21.85 121.49-20.05 121.49-17.3L121.49-17.3 121.49 0 118.74 0ZM136.29 8.35Q139.64 7.1 139.64 3.15L139.64 3.15 139.64-2.45Q138.69-0.85 136.79-0.13 134.89 0.6 132.69 0.6L132.69 0.6Q128.29 0.6 125.91-1.78 123.54-4.15 123.54-8.8L123.54-8.8 123.54-25.05 126.24-25.05 126.24-8.3Q126.24-5.1 127.99-3.53 129.74-1.95 132.69-1.95L132.69-1.95Q135.79-1.95 137.69-3.5 139.59-5.05 139.59-8.3L139.59-8.3 139.59-18.15Q139.59-20.55 139.74-21.73 139.89-22.9 140.66-23.93 141.44-24.95 143.24-25.5L143.24-25.5 143.99-23.6Q142.29-22.85 142.29-20.1L142.29-20.1 142.29 3.05Q142.29 6.1 141.09 7.85 139.89 9.6 137.04 10.5L137.04 10.5 136.29 8.35Z" opacity="1" transform="matrix(1,0,0,1,0,0)" fill="white" class="slogan-text-1" id="SvgjsPath2939"></path></svg></g></svg></g></svg></g></svg></g><g transform="matrix(1,0,0,1,410.1104247866511,0)"><svg viewBox="0 0 183.3443266016682 158.36225360370267" height="158.36225360370267" width="183.3443266016682"><g><svg xmlns="http://www.w3.org/2000/svg" xmlns:xlink="http://www.w3.org/1999/xlink" version="1.1" x="0" y="0" viewBox="5 10.791 85.00000024073253 73.41809721596914" enable-background="new 0 0 95 95" xml:space="preserve" height="158.36225360370267" width="183.3443266016682" class="icon-icon-0" data-fill-palette-color="accent" id="SvgjsSvg2938"><g fill="black"><path d="M83.44 79.794L73.397 54.166H79.706A2.126 2.126 0 0 0 79.706 49.915H71.732L68.919 42.734A14.2 14.2 0 0 0 73.655 32.126C73.655 25.399 68.987 19.772 62.721 18.282V12.172C62.721 11.41 62.105 10.791 61.347 10.791H57.497C56.735 10.791 56.121 11.41 56.121 12.172V18.282C49.851 19.772 45.185 25.4 45.185 32.126A14.2 14.2 0 0 0 49.754 42.579L46.88 49.915H38.96A2.126 2.126 0 0 0 38.96 54.166H45.216L35.17 79.794C33.128 85.346 33.898 85.712 36.881 80.607L51.136 54.166H54.229A5.3 5.3 0 0 0 59.337 58.062C61.772 58.062 63.823 56.409 64.44 54.166H67.472L81.729 80.607C84.712 85.712 85.484 85.346 83.44 79.794M59.419 23.657A8.47 8.47 0 0 1 67.891 32.127 8.47 8.47 0 0 1 63.49 39.56L62.609 39.98A8.4 8.4 0 0 1 59.419 40.604C54.743 40.604 50.947 36.81 50.947 32.127 50.947 27.446 54.744 23.657 59.419 23.657M63.798 49.916A5.28 5.28 0 0 0 59.336 47.466 5.27 5.27 0 0 0 54.872 49.916H53.425L55.622 45.85A14.4 14.4 0 0 0 63.019 45.906L65.182 49.916z" fill="black"></path><path d="M10.088 22.674V73.06H84.912V22.674zM18.793 71.958H11.189V65.505H18.793zM18.793 65.432H11.189V58.612H18.793zM18.793 58.245H11.189V51.424H18.793zM18.793 51.351H11.189V44.384H18.793zM18.793 44.31H11.189V37.49H18.793zM18.793 37.123H11.189V30.302H18.793zM18.793 30.229H11.189V23.776H18.793zM26.985 71.958H18.867V65.505H26.985zM26.985 65.432H18.867V58.612H26.985zM26.985 58.245H18.867V51.424H26.985zM26.985 51.351H18.867V44.384H26.985zM26.985 44.31H18.867V37.49H26.985zM26.985 37.123H18.867V30.302H26.985zM18.867 23.776H26.985V30.229H18.867M34.662 71.958H27.058V65.505H34.662zM34.662 65.432H27.058V58.612H34.662zM34.662 58.245H27.058V51.424H34.662zM34.662 51.351H27.058V44.384H34.662zM34.662 44.31H27.058V37.49H34.662zM34.662 37.123H27.058V30.302H34.662zM34.662 30.229H27.058V23.776H34.662zM43.367 71.958H35.763V65.505H43.367zM43.367 65.432H35.763V58.612H43.367zM43.367 58.245H35.763V51.424H43.367zM43.367 51.351H35.763V44.384H43.367zM43.367 44.31H35.763V37.49H43.367zM43.367 37.123H35.763V30.302H43.367zM43.367 30.229H35.763V23.776H43.367zM51.559 71.958H43.441V65.505H51.559zM51.559 65.432H43.441V58.612H51.559zM51.559 58.245H43.441V51.424H51.559zM51.559 51.351H43.441V44.384H51.559zM51.559 44.31H43.441V37.49H51.559zM51.559 37.123H43.441V30.302H51.559zM51.559 30.229H43.441V23.776H51.559zM59.236 71.958H51.632V65.505H59.236zM59.236 65.432H51.632V58.612H59.236zM59.236 58.245H51.632V51.424H59.236zM59.236 51.351H51.632V44.384H59.236zM59.236 44.31H51.632V37.49H59.236zM59.236 37.123H51.632V30.302H59.236zM59.236 30.229H51.632V23.776H59.236zM67.942 71.958H60.338V65.505H67.942zM67.942 65.432H60.338V58.612H67.942zM67.942 58.245H60.338V51.424H67.942zM67.942 51.351H60.338V44.384H67.942zM67.942 44.31H60.338V37.49H67.942zM67.942 37.123H60.338V30.302H67.942zM67.942 30.229H60.338V23.776H67.942zM76.133 71.958H68.015V65.505H76.133zM76.133 65.432H68.015V58.612H76.133zM76.133 58.245H68.015V51.424H76.133zM76.133 51.351H68.015V44.384H76.133zM76.133 44.31H68.015V37.49H76.133zM76.133 37.123H68.015V30.302H76.133zM76.133 30.229H68.015V23.776H76.133zM83.811 71.958H76.207V65.505H83.811zM83.811 65.432H76.207V58.612H83.811zM83.811 58.245H76.207V51.424H83.811zM83.811 51.351H76.207V44.384H83.811zM83.811 44.31H76.207V37.49H83.811zM83.811 37.123H76.207V30.302H83.811zM83.811 30.229H76.207V23.776H83.811z" fill="black"></path><polygon points="43.232,75.792 42.243,77.627 76.369,77.627 75.379,75.792  " fill="black"></polygon><path d="M87.92 18.107H69.942A18 18 0 0 1 72.016 19.942H87.92C88.055 19.942 88.165 20.052 88.165 20.187V75.546C88.165 75.681 88.055 75.791 87.92 75.791H85.421L86.14 77.626H87.92C89.067 77.626 90 76.693 90 75.546V20.188A2.08 2.08 0 0 0 87.92 18.107" fill="black"></path><path d="M6.835 75.547V20.188C6.835 20.053 6.945 19.943 7.08 19.943H46.822A17.5 17.5 0 0 1 48.897 18.108H7.08A2.08 2.08 0 0 0 5 20.188V75.547C5 76.694 5.933 77.627 7.08 77.627H32.471L33.19 75.792H7.08A0.245 0.245 0 0 1 6.835 75.547" fill="black"></path></g></svg></g></svg></g></svg></g><defs><mask></mask></defs><mask><g id="SvgjsG2937"><svg viewBox="0 0 395.52 105.54374768894857" height="105.54374768894857" width="395.52"><g><svg viewBox="0 0 593.4547513883193 158.36225360370267" height="105.54374768894857" width="395.52"><g transform="matrix(1,0,0,1,0,21.886534325837346)"><svg viewBox="0 0 395.52 114.58918495202798" height="114.58918495202798" width="395.52"><g id="SvgjsG2936"><svg viewBox="0 0 395.52 114.58918495202798" height="114.58918495202798" width="395.52" id="SvgjsSvg2935"><g><svg viewBox="0 0 395.52 61.80393088094985" height="61.80393088094985" width="395.52"><g transform="matrix(1,0,0,1,0,0)"><svg width="395.52" viewBox="1 -35.5 230.28 35.99" height="61.80393088094985" data-palette-color="url(#399294a9-1766-4104-8cb8-4fd4273f13f6)"><path d="M20.85-32.01L12.5-32.01 12.5 0 9.35 0 9.35-32.01 1-32.01 1-35.01 20.85-35.01 20.85-32.01ZM39.55-6.86L39.55-6.86Q39.55-5.35 38.97-4 38.4-2.66 37.4-1.66 36.4-0.66 35.06-0.09 33.71 0.49 32.2 0.49L32.2 0.49 30.2 0.49Q28.68 0.49 27.34-0.09 26-0.66 25-1.66 24-2.66 23.42-4 22.85-5.35 22.85-6.86L22.85-6.86 22.85-18.14Q22.85-19.65 23.42-21 24-22.34 25-23.34 26-24.34 27.34-24.91 28.68-25.49 30.2-25.49L30.2-25.49 32.2-25.49Q33.71-25.49 35.06-24.91 36.4-24.34 37.4-23.34 38.4-22.34 38.97-21 39.55-19.65 39.55-18.14L39.55-18.14 39.55-12.26 25.85-12.26 25.85-6.69Q25.85-5.79 26.19-4.99 26.54-4.2 27.12-3.61 27.71-3.03 28.5-2.69 29.29-2.34 30.2-2.34L30.2-2.34 32.2-2.34Q33.1-2.34 33.9-2.69 34.69-3.03 35.28-3.61 35.86-4.2 36.2-4.99 36.55-5.79 36.55-6.69L36.55-6.69 36.55-8.35 39.55-7.86 39.55-6.86ZM36.55-14.6L36.55-18.31Q36.55-19.21 36.2-20.01 35.86-20.8 35.28-21.39 34.69-21.97 33.9-22.31 33.1-22.66 32.2-22.66L32.2-22.66 30.2-22.66Q29.29-22.66 28.5-22.31 27.71-21.97 27.12-21.39 26.54-20.8 26.19-20.01 25.85-19.21 25.85-18.31L25.85-18.31 25.85-14.6 36.55-14.6ZM62.25 0L61.25 0 59.59-2.49Q58.56-1.15 57.03-0.33 55.49 0.49 53.66 0.49L53.66 0.49 52.9 0.49Q51.39 0.49 50.04-0.09 48.7-0.66 47.7-1.66 46.7-2.66 46.13-4 45.55-5.35 45.55-6.86L45.55-6.86 45.55-7.1Q45.55-8.62 46.13-9.96 46.7-11.3 47.7-12.3 48.7-13.31 50.04-13.88 51.39-14.45 52.9-14.45L52.9-14.45 59.25-14.45 59.25-18.31Q59.25-19.21 58.91-20.01 58.56-20.8 57.98-21.39 57.39-21.97 56.6-22.31 55.81-22.66 54.9-22.66L54.9-22.66 53.14-22.66Q52.24-22.66 51.45-22.31 50.65-21.97 50.07-21.39 49.48-20.8 49.14-20.01 48.8-19.21 48.8-18.31L48.8-18.31 48.8-17.41 45.8-17.9 45.8-18.14Q45.8-19.65 46.37-21 46.94-22.34 47.94-23.34 48.95-24.34 50.29-24.91 51.63-25.49 53.14-25.49L53.14-25.49 54.9-25.49Q56.42-25.49 57.76-24.91 59.1-24.34 60.1-23.34 61.1-22.34 61.68-21 62.25-19.65 62.25-18.14L62.25-18.14 62.25 0ZM59.25-6.69L59.25-12.11 52.9-12.11Q52-12.11 51.2-11.77 50.41-11.43 49.82-10.83 49.24-10.23 48.9-9.44 48.55-8.64 48.55-7.74L48.55-7.74 48.55-6.69Q48.55-5.79 48.9-4.99 49.24-4.2 49.82-3.61 50.41-3.03 51.2-2.69 52-2.34 52.9-2.34L52.9-2.34 54.9-2.34Q55.81-2.34 56.6-2.69 57.39-3.03 57.98-3.61 58.56-4.2 58.91-4.99 59.25-5.79 59.25-6.69L59.25-6.69ZM97.65 0L94.65 0 94.65-18.31Q94.65-19.21 94.3-20.01 93.96-20.8 93.38-21.39 92.79-21.97 92-22.31 91.2-22.66 90.3-22.66L90.3-22.66 88.81-22.66Q87.91-22.66 87.11-22.31 86.32-21.97 85.72-21.39 85.12-20.8 84.78-20.01 84.44-19.21 84.44-18.31L84.44-18.31 84.44 0 81.46 0 81.46-18.31Q81.46-19.21 81.12-20.01 80.78-20.8 80.18-21.39 79.58-21.97 78.79-22.31 78-22.66 77.09-22.66L77.09-22.66 75.6-22.66Q74.7-22.66 73.91-22.31 73.11-21.97 72.53-21.39 71.94-20.8 71.6-20.01 71.26-19.21 71.26-18.31L71.26-18.31 71.26 0 68.25 0 68.25-25 69.26-25 70.89-22.46Q71.92-23.85 73.47-24.67 75.02-25.49 76.85-25.49L76.85-25.49 77.09-25.49Q79.22-25.49 80.93-24.44 82.63-23.39 83.56-21.66L83.56-21.66Q84.03-22.51 84.71-23.22 85.39-23.93 86.22-24.43 87.05-24.93 88.03-25.21 89.01-25.49 90.06-25.49L90.06-25.49 90.3-25.49Q91.81-25.49 93.16-24.91 94.5-24.34 95.5-23.34 96.5-22.34 97.08-21 97.65-19.65 97.65-18.14L97.65-18.14 97.65 0ZM123.84-9.16L123.84-8.11Q123.84-6.32 123.12-4.76 122.4-3.2 121.19-2.03 119.99-0.85 118.39-0.18 116.79 0.49 115 0.49L115 0.49 112.49 0.49Q110.71 0.49 109.11-0.18 107.51-0.85 106.3-2.03 105.09-3.2 104.37-4.76 103.65-6.32 103.65-8.11L103.65-8.11 103.65-9.5 106.8-10.01 106.8-8.11Q106.8-6.93 107.28-5.92 107.75-4.91 108.56-4.14 109.37-3.37 110.43-2.93 111.49-2.49 112.66-2.49L112.66-2.49 114.86-2.49Q116.03-2.49 117.08-2.93 118.13-3.37 118.94-4.14 119.74-4.91 120.22-5.92 120.69-6.93 120.69-8.11L120.69-8.11 120.69-9.16Q120.69-10.96 119.99-12.16 119.28-13.35 118.11-14.2 116.93-15.04 115.46-15.63 113.98-16.21 112.42-16.8 110.85-17.38 109.38-18.09 107.9-18.8 106.73-19.86 105.56-20.92 104.85-22.46 104.14-24 104.14-26.25L104.14-26.25 104.14-26.9Q104.14-28.69 104.81-30.25 105.48-31.81 106.66-32.98 107.83-34.16 109.4-34.83 110.98-35.5 112.76-35.5L112.76-35.5 115-35.5Q116.79-35.5 118.35-34.83 119.91-34.16 121.08-32.98 122.26-31.81 122.93-30.25 123.6-28.69 123.6-26.9L123.6-26.9 123.6-26 120.45-25.49 120.45-26.9Q120.45-28.08 120.01-29.09 119.57-30.1 118.81-30.86 118.06-31.62 117.04-32.06 116.03-32.5 114.86-32.5L114.86-32.5 112.91-32.5Q111.73-32.5 110.72-32.06 109.71-31.62 108.94-30.86 108.17-30.1 107.73-29.09 107.29-28.08 107.29-26.9L107.29-26.9 107.29-26.25Q107.29-24.56 108-23.41 108.71-22.27 109.88-21.45 111.05-20.63 112.53-20.03 114-19.43 115.57-18.81 117.13-18.19 118.61-17.44 120.08-16.7 121.25-15.61 122.43-14.53 123.13-12.96 123.84-11.4 123.84-9.16L123.84-9.16ZM147.81 0L143.91 0 133.7-12.5 143.91-25 147.81-25 137.37-12.5 147.81 0ZM133.12 0L130.11 0 130.11-35.01 133.12-35.01 133.12 0ZM168.52-6.86L168.52-6.86Q168.52-5.35 167.94-4 167.37-2.66 166.37-1.66 165.37-0.66 164.02-0.09 162.68 0.49 161.17 0.49L161.17 0.49 159.16 0.49Q157.65 0.49 156.31-0.09 154.97-0.66 153.96-1.66 152.96-2.66 152.39-4 151.82-5.35 151.82-6.86L151.82-6.86 151.82-18.14Q151.82-19.65 152.39-21 152.96-22.34 153.96-23.34 154.97-24.34 156.31-24.91 157.65-25.49 159.16-25.49L159.16-25.49 161.17-25.49Q162.68-25.49 164.02-24.91 165.37-24.34 166.37-23.34 167.37-22.34 167.94-21 168.52-19.65 168.52-18.14L168.52-18.14 168.52-12.26 154.82-12.26 154.82-6.69Q154.82-5.79 155.16-4.99 155.5-4.2 156.09-3.61 156.67-3.03 157.47-2.69 158.26-2.34 159.16-2.34L159.16-2.34 161.17-2.34Q162.07-2.34 162.86-2.69 163.66-3.03 164.24-3.61 164.83-4.2 165.17-4.99 165.51-5.79 165.51-6.69L165.51-6.69 165.51-8.35 168.52-7.86 168.52-6.86ZM165.51-14.6L165.51-18.31Q165.51-19.21 165.17-20.01 164.83-20.8 164.24-21.39 163.66-21.97 162.86-22.31 162.07-22.66 161.17-22.66L161.17-22.66 159.16-22.66Q158.26-22.66 157.47-22.31 156.67-21.97 156.09-21.39 155.5-20.8 155.16-20.01 154.82-19.21 154.82-18.31L154.82-18.31 154.82-14.6 165.51-14.6ZM186.36 0L183.63 0Q182.26 0 181.05-0.51 179.84-1.03 178.95-1.93 178.06-2.83 177.53-4.03 177.01-5.22 177.01-6.59L177.01-6.59 177.01-22.14 172.52-22.14 172.52-25 177.01-25 177.01-31.01 180.01-31.49 180.01-25 186.36-25 186.36-22.14 180.01-22.14 180.01-6.45Q180.01-5.69 180.29-5.04 180.57-4.39 181.06-3.91 181.55-3.42 182.21-3.14 182.87-2.86 183.63-2.86L183.63-2.86 186.36-2.86 186.36 0ZM208.57-6.86L208.57-6.86Q208.57-5.35 208-4 207.43-2.66 206.43-1.66 205.42-0.66 204.08-0.09 202.74 0.49 201.23 0.49L201.23 0.49 199.22 0.49Q197.71 0.49 196.37-0.09 195.02-0.66 194.02-1.66 193.02-2.66 192.45-4 191.87-5.35 191.87-6.86L191.87-6.86 191.87-18.14Q191.87-19.65 192.45-21 193.02-22.34 194.02-23.34 195.02-24.34 196.37-24.91 197.71-25.49 199.22-25.49L199.22-25.49 201.23-25.49Q202.74-25.49 204.08-24.91 205.42-24.34 206.43-23.34 207.43-22.34 208-21 208.57-19.65 208.57-18.14L208.57-18.14 208.57-17.14 205.57-16.65 205.57-18.31Q205.57-19.21 205.23-20.01 204.89-20.8 204.3-21.39 203.72-21.97 202.92-22.31 202.13-22.66 201.23-22.66L201.23-22.66 199.22-22.66Q198.32-22.66 197.53-22.31 196.73-21.97 196.15-21.39 195.56-20.8 195.22-20.01 194.88-19.21 194.88-18.31L194.88-18.31 194.88-6.69Q194.88-5.79 195.22-4.99 195.56-4.2 196.15-3.61 196.73-3.03 197.53-2.69 198.32-2.34 199.22-2.34L199.22-2.34 201.23-2.34Q202.13-2.34 202.92-2.69 203.72-3.03 204.3-3.61 204.89-4.2 205.23-4.99 205.57-5.79 205.57-6.69L205.57-6.69 205.57-8.35 208.57-7.86 208.57-6.86ZM231.28 0L228.27 0 228.27-18.31Q228.27-19.21 227.93-20.01 227.59-20.8 227-21.39 226.42-21.97 225.62-22.31 224.83-22.66 223.93-22.66L223.93-22.66 221.93-22.66Q221.02-22.66 220.23-22.31 219.44-21.97 218.85-21.39 218.26-20.8 217.92-20.01 217.58-19.21 217.58-18.31L217.58-18.31 217.58 0 214.58 0 214.58-35.01 217.58-35.01 217.58-22.9Q218.61-24.12 220.05-24.8 221.49-25.49 223.17-25.49L223.17-25.49 223.93-25.49Q225.44-25.49 226.78-24.91 228.13-24.34 229.13-23.34 230.13-22.34 230.7-21 231.28-19.65 231.28-18.14L231.28-18.14 231.28 0Z" opacity="1" transform="matrix(1,0,0,1,0,0)" fill="black" class="wordmark-text-0" id="SvgjsPath2934"></path></svg></g></svg></g><g transform="matrix(1,0,0,1,277.489674287363,76.39435566760096)"><svg viewBox="0 0 118.03032571263695 38.19482928442701" height="38.19482928442701" width="118.03032571263695"><g transform="matrix(1,0,0,1,0,0)"><svg width="118.03032571263695" viewBox="1.85 -35.5 142.14000000000001 46" height="38.19482928442701" data-palette-color="url(#7dcf5911-11a9-421d-a207-4f9184c17acf)"><path d="M4.7-8.9Q4.85-7.2 5.98-5.65 7.1-4.1 9.08-3.13 11.05-2.15 13.6-2.15L13.6-2.15Q17.45-2.15 20.03-3.88 22.6-5.6 22.6-9.35L22.6-9.35Q22.6-11.55 21.35-13.03 20.1-14.5 18.25-15.38 16.4-16.25 13.2-17.4L13.2-17.4Q9.75-18.6 7.68-19.63 5.6-20.65 4.17-22.4 2.75-24.15 2.75-26.9L2.75-26.9Q2.75-29.1 4-31.08 5.25-33.05 7.78-34.27 10.3-35.5 14-35.5L14-35.5Q16.45-35.5 18.05-35.15 19.65-34.8 21.3-34L21.3-34 20.45-31.35Q17.6-32.8 14.1-32.8L14.1-32.8Q10.25-32.8 7.95-31.2 5.65-29.6 5.65-26.75L5.65-26.75Q5.65-24.95 6.8-23.73 7.95-22.5 9.63-21.75 11.3-21 14.3-19.95L14.3-19.95Q17.95-18.7 20.2-17.63 22.45-16.55 24.03-14.58 25.6-12.6 25.6-9.6L25.6-9.6Q25.6-5 22.68-2.23 19.75 0.55 13.65 0.55L13.65 0.55Q9.95 0.55 7.33-0.83 4.7-2.2 3.33-4.38 1.95-6.55 1.85-8.9L1.85-8.9 4.7-8.9ZM46.4 0L36.8-15.85 34.2-13.6 34.2 0 31.4 0 31.4-35 34.2-35 34.2-16.75 44.2-26 46.2-24.05 38.8-17.6Q42.2-11.95 49.75 0L49.75 0 46.4 0ZM67.05-1.75Q65.25-0.6 62.95 0 60.65 0.6 58.34 0.6L58.34 0.6Q54.65 0.6 52.47-1.23 50.3-3.05 50.3-6.7L50.3-6.7 50.3-16.95Q50.3-21 52.82-23.25 55.34-25.5 59.5-25.5L59.5-25.5Q63.65-25.5 65.97-23.28 68.3-21.05 68.3-17.1L68.3-17.1 68.3-10.6 53.09-9.75 53.09-6.7Q53.09-4.3 54.65-3.1 56.2-1.9 58.7-1.9L58.7-1.9Q62.2-1.9 65.95-3.9L65.95-3.9 67.05-1.75ZM65.5-17.45Q65.5-20.55 63.55-21.83 61.59-23.1 59.45-23.1L59.45-23.1Q56.7-23.1 54.9-21.6 53.09-20.1 53.09-16.9L53.09-16.9 53.09-12.5 65.5-13.1 65.5-17.45ZM77.74 0.65Q74.94-0.15 73.69-1.9 72.44-3.65 72.44-6.6L72.44-6.6 72.44-35 75.24-35 75.24-25.05 81.24-25.05 80.04-22.4 75.24-22.4 75.24-6.6Q75.24-2.6 78.54-1.5L78.54-1.5 77.74 0.65ZM100.29-0.3Q97.19 0.5 94.29 0.5L94.29 0.5Q91.59 0.5 89.79-0.1L89.79-0.1Q86.84-1.1 85.52-3.18 84.19-5.25 84.19-9L84.19-9 84.19-15.4Q84.19-20.35 86.79-22.93 89.39-25.5 93.49-25.5L93.49-25.5Q96.74-25.5 100.19-23.9L100.19-23.9 99.39-21.85Q96.54-23 93.89-23L93.89-23Q90.79-23 88.89-21.23 86.99-19.45 86.99-15.7L86.99-15.7 86.99-8.45Q86.99-5 89.07-3.45 91.14-1.9 94.59-1.9L94.59-1.9Q96.84-1.9 99.69-2.55L99.69-2.55 100.29-0.3ZM118.74 0L118.74-17.15Q118.74-20.2 116.96-21.58 115.19-22.95 112.39-22.95L112.39-22.95Q110.69-22.95 108.94-22.48 107.19-22 105.84-21.25L105.84-21.25 105.84 0 103.04 0 103.04-35 105.84-35 105.84-23.7Q107.09-24.55 108.84-25.03 110.59-25.5 112.49-25.5L112.49-25.5Q115.09-25.5 117.24-24.55L117.24-24.55Q119.24-23.65 120.36-21.85 121.49-20.05 121.49-17.3L121.49-17.3 121.49 0 118.74 0ZM136.29 8.35Q139.64 7.1 139.64 3.15L139.64 3.15 139.64-2.45Q138.69-0.85 136.79-0.13 134.89 0.6 132.69 0.6L132.69 0.6Q128.29 0.6 125.91-1.78 123.54-4.15 123.54-8.8L123.54-8.8 123.54-25.05 126.24-25.05 126.24-8.3Q126.24-5.1 127.99-3.53 129.74-1.95 132.69-1.95L132.69-1.95Q135.79-1.95 137.69-3.5 139.59-5.05 139.59-8.3L139.59-8.3 139.59-18.15Q139.59-20.55 139.74-21.73 139.89-22.9 140.66-23.93 141.44-24.95 143.24-25.5L143.24-25.5 143.99-23.6Q142.29-22.85 142.29-20.1L142.29-20.1 142.29 3.05Q142.29 6.1 141.09 7.85 139.89 9.6 137.04 10.5L137.04 10.5 136.29 8.35Z" opacity="1" transform="matrix(1,0,0,1,0,0)" fill="black" class="slogan-text-1" id="SvgjsPath2933"></path></svg></g></svg></g></svg></g></svg></g><g transform="matrix(1,0,0,1,410.1104247866511,0)"><svg viewBox="0 0 183.3443266016682 158.36225360370267" height="158.36225360370267" width="183.3443266016682"><g><svg xmlns="http://www.w3.org/2000/svg" xmlns:xlink="http://www.w3.org/1999/xlink" version="1.1" x="0" y="0" viewBox="5 10.791 85.00000024073253 73.41809721596914" enable-background="new 0 0 95 95" xml:space="preserve" height="158.36225360370267" width="183.3443266016682" class="icon-icon-0" data-fill-palette-color="accent" id="SvgjsSvg2932"><g fill="black"><path d="M83.44 79.794L73.397 54.166H79.706A2.126 2.126 0 0 0 79.706 49.915H71.732L68.919 42.734A14.2 14.2 0 0 0 73.655 32.126C73.655 25.399 68.987 19.772 62.721 18.282V12.172C62.721 11.41 62.105 10.791 61.347 10.791H57.497C56.735 10.791 56.121 11.41 56.121 12.172V18.282C49.851 19.772 45.185 25.4 45.185 32.126A14.2 14.2 0 0 0 49.754 42.579L46.88 49.915H38.96A2.126 2.126 0 0 0 38.96 54.166H45.216L35.17 79.794C33.128 85.346 33.898 85.712 36.881 80.607L51.136 54.166H54.229A5.3 5.3 0 0 0 59.337 58.062C61.772 58.062 63.823 56.409 64.44 54.166H67.472L81.729 80.607C84.712 85.712 85.484 85.346 83.44 79.794M59.419 23.657A8.47 8.47 0 0 1 67.891 32.127 8.47 8.47 0 0 1 63.49 39.56L62.609 39.98A8.4 8.4 0 0 1 59.419 40.604C54.743 40.604 50.947 36.81 50.947 32.127 50.947 27.446 54.744 23.657 59.419 23.657M63.798 49.916A5.28 5.28 0 0 0 59.336 47.466 5.27 5.27 0 0 0 54.872 49.916H53.425L55.622 45.85A14.4 14.4 0 0 0 63.019 45.906L65.182 49.916z" fill="black"></path><path d="M10.088 22.674V73.06H84.912V22.674zM18.793 71.958H11.189V65.505H18.793zM18.793 65.432H11.189V58.612H18.793zM18.793 58.245H11.189V51.424H18.793zM18.793 51.351H11.189V44.384H18.793zM18.793 44.31H11.189V37.49H18.793zM18.793 37.123H11.189V30.302H18.793zM18.793 30.229H11.189V23.776H18.793zM26.985 71.958H18.867V65.505H26.985zM26.985 65.432H18.867V58.612H26.985zM26.985 58.245H18.867V51.424H26.985zM26.985 51.351H18.867V44.384H26.985zM26.985 44.31H18.867V37.49H26.985zM26.985 37.123H18.867V30.302H26.985zM18.867 23.776H26.985V30.229H18.867M34.662 71.958H27.058V65.505H34.662zM34.662 65.432H27.058V58.612H34.662zM34.662 58.245H27.058V51.424H34.662zM34.662 51.351H27.058V44.384H34.662zM34.662 44.31H27.058V37.49H34.662zM34.662 37.123H27.058V30.302H34.662zM34.662 30.229H27.058V23.776H34.662zM43.367 71.958H35.763V65.505H43.367zM43.367 65.432H35.763V58.612H43.367zM43.367 58.245H35.763V51.424H43.367zM43.367 51.351H35.763V44.384H43.367zM43.367 44.31H35.763V37.49H43.367zM43.367 37.123H35.763V30.302H43.367zM43.367 30.229H35.763V23.776H43.367zM51.559 71.958H43.441V65.505H51.559zM51.559 65.432H43.441V58.612H51.559zM51.559 58.245H43.441V51.424H51.559zM51.559 51.351H43.441V44.384H51.559zM51.559 44.31H43.441V37.49H51.559zM51.559 37.123H43.441V30.302H51.559zM51.559 30.229H43.441V23.776H51.559zM59.236 71.958H51.632V65.505H59.236zM59.236 65.432H51.632V58.612H59.236zM59.236 58.245H51.632V51.424H59.236zM59.236 51.351H51.632V44.384H59.236zM59.236 44.31H51.632V37.49H59.236zM59.236 37.123H51.632V30.302H59.236zM59.236 30.229H51.632V23.776H59.236zM67.942 71.958H60.338V65.505H67.942zM67.942 65.432H60.338V58.612H67.942zM67.942 58.245H60.338V51.424H67.942zM67.942 51.351H60.338V44.384H67.942zM67.942 44.31H60.338V37.49H67.942zM67.942 37.123H60.338V30.302H67.942zM67.942 30.229H60.338V23.776H67.942zM76.133 71.958H68.015V65.505H76.133zM76.133 65.432H68.015V58.612H76.133zM76.133 58.245H68.015V51.424H76.133zM76.133 51.351H68.015V44.384H76.133zM76.133 44.31H68.015V37.49H76.133zM76.133 37.123H68.015V30.302H76.133zM76.133 30.229H68.015V23.776H76.133zM83.811 71.958H76.207V65.505H83.811zM83.811 65.432H76.207V58.612H83.811zM83.811 58.245H76.207V51.424H83.811zM83.811 51.351H76.207V44.384H83.811zM83.811 44.31H76.207V37.49H83.811zM83.811 37.123H76.207V30.302H83.811zM83.811 30.229H76.207V23.776H83.811z" fill="black"></path><polygon points="43.232,75.792 42.243,77.627 76.369,77.627 75.379,75.792  " fill="black"></polygon><path d="M87.92 18.107H69.942A18 18 0 0 1 72.016 19.942H87.92C88.055 19.942 88.165 20.052 88.165 20.187V75.546C88.165 75.681 88.055 75.791 87.92 75.791H85.421L86.14 77.626H87.92C89.067 77.626 90 76.693 90 75.546V20.188A2.08 2.08 0 0 0 87.92 18.107" fill="black"></path><path d="M6.835 75.547V20.188C6.835 20.053 6.945 19.943 7.08 19.943H46.822A17.5 17.5 0 0 1 48.897 18.108H7.08A2.08 2.08 0 0 0 5 20.188V75.547C5 76.694 5.933 77.627 7.08 77.627H32.471L33.19 75.792H7.08A0.245 0.245 0 0 1 6.835 75.547" fill="black"></path></g></svg></g></svg></g></svg></g><defs><mask></mask></defs></svg><rect width="395.52" height="105.54374768894857" fill="black" stroke="none" visibility="hidden"></rect></g></mask></svg><rect width="395.52" height="105.54374768894857" fill="black" stroke="none" visibility="hidden"></rect></g></mask><linearGradient x1="0" x2="1" y1="0.548" y2="0.55" id="7dcf5911-11a9-421d-a207-4f9184c17acf"><stop stop-color="#ff6cab" offset="0"></stop><stop stop-color="#7366ff" offset="1"></stop></linearGradient><rect width="395.52" height="105.54374768894857" fill="url(#7dcf5911-11a9-421d-a207-4f9184c17acf)" mask="url(#7ab4bf4e-226b-4ec3-b59b-1f7619f1b483)" data-fill-palette-color="secondary"></rect><mask id="af43d932-a180-4224-bc8d-6ef9dc661e59"><g id="SvgjsG2963"><svg viewBox="0 0 395.52 105.54374768894857" height="105.54374768894857" width="395.52"><g><svg viewBox="0 0 593.4547513883193 158.36225360370267" height="105.54374768894857" width="395.52"><g transform="matrix(1,0,0,1,0,21.886534325837346)"><svg viewBox="0 0 395.52 114.58918495202798" height="114.58918495202798" width="395.52"><g id="SvgjsG2962"><svg viewBox="0 0 395.52 114.58918495202798" height="114.58918495202798" width="395.52" id="SvgjsSvg2961"><g><svg viewBox="0 0 395.52 61.80393088094985" height="61.80393088094985" width="395.52"><g transform="matrix(1,0,0,1,0,0)"><svg width="395.52" viewBox="1 -35.5 230.28 35.99" height="61.80393088094985" data-palette-color="url(#399294a9-1766-4104-8cb8-4fd4273f13f6)"></svg></g></svg></g><g transform="matrix(1,0,0,1,277.489674287363,76.39435566760096)"><svg viewBox="0 0 118.03032571263695 38.19482928442701" height="38.19482928442701" width="118.03032571263695"><g transform="matrix(1,0,0,1,0,0)"><svg width="118.03032571263695" viewBox="1.85 -35.5 142.14000000000001 46" height="38.19482928442701" data-palette-color="url(#7dcf5911-11a9-421d-a207-4f9184c17acf)"></svg></g></svg></g></svg></g></svg></g><g transform="matrix(1,0,0,1,410.1104247866511,0)"><svg viewBox="0 0 183.3443266016682 158.36225360370267" height="158.36225360370267" width="183.3443266016682"><g><svg xmlns="http://www.w3.org/2000/svg" xmlns:xlink="http://www.w3.org/1999/xlink" version="1.1" x="0" y="0" viewBox="5 10.791 85.00000024073253 73.41809721596914" enable-background="new 0 0 95 95" xml:space="preserve" height="158.36225360370267" width="183.3443266016682" class="icon-icon-0" data-fill-palette-color="accent" id="SvgjsSvg2960"><g fill="white"><path d="M83.44 79.794L73.397 54.166H79.706A2.126 2.126 0 0 0 79.706 49.915H71.732L68.919 42.734A14.2 14.2 0 0 0 73.655 32.126C73.655 25.399 68.987 19.772 62.721 18.282V12.172C62.721 11.41 62.105 10.791 61.347 10.791H57.497C56.735 10.791 56.121 11.41 56.121 12.172V18.282C49.851 19.772 45.185 25.4 45.185 32.126A14.2 14.2 0 0 0 49.754 42.579L46.88 49.915H38.96A2.126 2.126 0 0 0 38.96 54.166H45.216L35.17 79.794C33.128 85.346 33.898 85.712 36.881 80.607L51.136 54.166H54.229A5.3 5.3 0 0 0 59.337 58.062C61.772 58.062 63.823 56.409 64.44 54.166H67.472L81.729 80.607C84.712 85.712 85.484 85.346 83.44 79.794M59.419 23.657A8.47 8.47 0 0 1 67.891 32.127 8.47 8.47 0 0 1 63.49 39.56L62.609 39.98A8.4 8.4 0 0 1 59.419 40.604C54.743 40.604 50.947 36.81 50.947 32.127 50.947 27.446 54.744 23.657 59.419 23.657M63.798 49.916A5.28 5.28 0 0 0 59.336 47.466 5.27 5.27 0 0 0 54.872 49.916H53.425L55.622 45.85A14.4 14.4 0 0 0 63.019 45.906L65.182 49.916z" fill="white"></path><path d="M10.088 22.674V73.06H84.912V22.674zM18.793 71.958H11.189V65.505H18.793zM18.793 65.432H11.189V58.612H18.793zM18.793 58.245H11.189V51.424H18.793zM18.793 51.351H11.189V44.384H18.793zM18.793 44.31H11.189V37.49H18.793zM18.793 37.123H11.189V30.302H18.793zM18.793 30.229H11.189V23.776H18.793zM26.985 71.958H18.867V65.505H26.985zM26.985 65.432H18.867V58.612H26.985zM26.985 58.245H18.867V51.424H26.985zM26.985 51.351H18.867V44.384H26.985zM26.985 44.31H18.867V37.49H26.985zM26.985 37.123H18.867V30.302H26.985zM18.867 23.776H26.985V30.229H18.867M34.662 71.958H27.058V65.505H34.662zM34.662 65.432H27.058V58.612H34.662zM34.662 58.245H27.058V51.424H34.662zM34.662 51.351H27.058V44.384H34.662zM34.662 44.31H27.058V37.49H34.662zM34.662 37.123H27.058V30.302H34.662zM34.662 30.229H27.058V23.776H34.662zM43.367 71.958H35.763V65.505H43.367zM43.367 65.432H35.763V58.612H43.367zM43.367 58.245H35.763V51.424H43.367zM43.367 51.351H35.763V44.384H43.367zM43.367 44.31H35.763V37.49H43.367zM43.367 37.123H35.763V30.302H43.367zM43.367 30.229H35.763V23.776H43.367zM51.559 71.958H43.441V65.505H51.559zM51.559 65.432H43.441V58.612H51.559zM51.559 58.245H43.441V51.424H51.559zM51.559 51.351H43.441V44.384H51.559zM51.559 44.31H43.441V37.49H51.559zM51.559 37.123H43.441V30.302H51.559zM51.559 30.229H43.441V23.776H51.559zM59.236 71.958H51.632V65.505H59.236zM59.236 65.432H51.632V58.612H59.236zM59.236 58.245H51.632V51.424H59.236zM59.236 51.351H51.632V44.384H59.236zM59.236 44.31H51.632V37.49H59.236zM59.236 37.123H51.632V30.302H59.236zM59.236 30.229H51.632V23.776H59.236zM67.942 71.958H60.338V65.505H67.942zM67.942 65.432H60.338V58.612H67.942zM67.942 58.245H60.338V51.424H67.942zM67.942 51.351H60.338V44.384H67.942zM67.942 44.31H60.338V37.49H67.942zM67.942 37.123H60.338V30.302H67.942zM67.942 30.229H60.338V23.776H67.942zM76.133 71.958H68.015V65.505H76.133zM76.133 65.432H68.015V58.612H76.133zM76.133 58.245H68.015V51.424H76.133zM76.133 51.351H68.015V44.384H76.133zM76.133 44.31H68.015V37.49H76.133zM76.133 37.123H68.015V30.302H76.133zM76.133 30.229H68.015V23.776H76.133zM83.811 71.958H76.207V65.505H83.811zM83.811 65.432H76.207V58.612H83.811zM83.811 58.245H76.207V51.424H83.811zM83.811 51.351H76.207V44.384H83.811zM83.811 44.31H76.207V37.49H83.811zM83.811 37.123H76.207V30.302H83.811zM83.811 30.229H76.207V23.776H83.811z" fill="white"></path><polygon points="43.232,75.792 42.243,77.627 76.369,77.627 75.379,75.792  " fill="white"></polygon><path d="M87.92 18.107H69.942A18 18 0 0 1 72.016 19.942H87.92C88.055 19.942 88.165 20.052 88.165 20.187V75.546C88.165 75.681 88.055 75.791 87.92 75.791H85.421L86.14 77.626H87.92C89.067 77.626 90 76.693 90 75.546V20.188A2.08 2.08 0 0 0 87.92 18.107" fill="white"></path><path d="M6.835 75.547V20.188C6.835 20.053 6.945 19.943 7.08 19.943H46.822A17.5 17.5 0 0 1 48.897 18.108H7.08A2.08 2.08 0 0 0 5 20.188V75.547C5 76.694 5.933 77.627 7.08 77.627H32.471L33.19 75.792H7.08A0.245 0.245 0 0 1 6.835 75.547" fill="white"></path></g></svg></g></svg></g></svg></g><defs><mask></mask></defs><mask><g id="SvgjsG2959"><svg viewBox="0 0 395.52 105.54374768894857" height="105.54374768894857" width="395.52"><g><svg viewBox="0 0 593.4547513883193 158.36225360370267" height="105.54374768894857" width="395.52"><g transform="matrix(1,0,0,1,0,21.886534325837346)"><svg viewBox="0 0 395.52 114.58918495202798" height="114.58918495202798" width="395.52"><g id="SvgjsG2958"><svg viewBox="0 0 395.52 114.58918495202798" height="114.58918495202798" width="395.52" id="SvgjsSvg2957"><g><svg viewBox="0 0 395.52 61.80393088094985" height="61.80393088094985" width="395.52"><g transform="matrix(1,0,0,1,0,0)"><svg width="395.52" viewBox="1 -35.5 230.28 35.99" height="61.80393088094985" data-palette-color="url(#399294a9-1766-4104-8cb8-4fd4273f13f6)"><path d="M20.85-32.01L12.5-32.01 12.5 0 9.35 0 9.35-32.01 1-32.01 1-35.01 20.85-35.01 20.85-32.01ZM39.55-6.86L39.55-6.86Q39.55-5.35 38.97-4 38.4-2.66 37.4-1.66 36.4-0.66 35.06-0.09 33.71 0.49 32.2 0.49L32.2 0.49 30.2 0.49Q28.68 0.49 27.34-0.09 26-0.66 25-1.66 24-2.66 23.42-4 22.85-5.35 22.85-6.86L22.85-6.86 22.85-18.14Q22.85-19.65 23.42-21 24-22.34 25-23.34 26-24.34 27.34-24.91 28.68-25.49 30.2-25.49L30.2-25.49 32.2-25.49Q33.71-25.49 35.06-24.91 36.4-24.34 37.4-23.34 38.4-22.34 38.97-21 39.55-19.65 39.55-18.14L39.55-18.14 39.55-12.26 25.85-12.26 25.85-6.69Q25.85-5.79 26.19-4.99 26.54-4.2 27.12-3.61 27.71-3.03 28.5-2.69 29.29-2.34 30.2-2.34L30.2-2.34 32.2-2.34Q33.1-2.34 33.9-2.69 34.69-3.03 35.28-3.61 35.86-4.2 36.2-4.99 36.55-5.79 36.55-6.69L36.55-6.69 36.55-8.35 39.55-7.86 39.55-6.86ZM36.55-14.6L36.55-18.31Q36.55-19.21 36.2-20.01 35.86-20.8 35.28-21.39 34.69-21.97 33.9-22.31 33.1-22.66 32.2-22.66L32.2-22.66 30.2-22.66Q29.29-22.66 28.5-22.31 27.71-21.97 27.12-21.39 26.54-20.8 26.19-20.01 25.85-19.21 25.85-18.31L25.85-18.31 25.85-14.6 36.55-14.6ZM62.25 0L61.25 0 59.59-2.49Q58.56-1.15 57.03-0.33 55.49 0.49 53.66 0.49L53.66 0.49 52.9 0.49Q51.39 0.49 50.04-0.09 48.7-0.66 47.7-1.66 46.7-2.66 46.13-4 45.55-5.35 45.55-6.86L45.55-6.86 45.55-7.1Q45.55-8.62 46.13-9.96 46.7-11.3 47.7-12.3 48.7-13.31 50.04-13.88 51.39-14.45 52.9-14.45L52.9-14.45 59.25-14.45 59.25-18.31Q59.25-19.21 58.91-20.01 58.56-20.8 57.98-21.39 57.39-21.97 56.6-22.31 55.81-22.66 54.9-22.66L54.9-22.66 53.14-22.66Q52.24-22.66 51.45-22.31 50.65-21.97 50.07-21.39 49.48-20.8 49.14-20.01 48.8-19.21 48.8-18.31L48.8-18.31 48.8-17.41 45.8-17.9 45.8-18.14Q45.8-19.65 46.37-21 46.94-22.34 47.94-23.34 48.95-24.34 50.29-24.91 51.63-25.49 53.14-25.49L53.14-25.49 54.9-25.49Q56.42-25.49 57.76-24.91 59.1-24.34 60.1-23.34 61.1-22.34 61.68-21 62.25-19.65 62.25-18.14L62.25-18.14 62.25 0ZM59.25-6.69L59.25-12.11 52.9-12.11Q52-12.11 51.2-11.77 50.41-11.43 49.82-10.83 49.24-10.23 48.9-9.44 48.55-8.64 48.55-7.74L48.55-7.74 48.55-6.69Q48.55-5.79 48.9-4.99 49.24-4.2 49.82-3.61 50.41-3.03 51.2-2.69 52-2.34 52.9-2.34L52.9-2.34 54.9-2.34Q55.81-2.34 56.6-2.69 57.39-3.03 57.98-3.61 58.56-4.2 58.91-4.99 59.25-5.79 59.25-6.69L59.25-6.69ZM97.65 0L94.65 0 94.65-18.31Q94.65-19.21 94.3-20.01 93.96-20.8 93.38-21.39 92.79-21.97 92-22.31 91.2-22.66 90.3-22.66L90.3-22.66 88.81-22.66Q87.91-22.66 87.11-22.31 86.32-21.97 85.72-21.39 85.12-20.8 84.78-20.01 84.44-19.21 84.44-18.31L84.44-18.31 84.44 0 81.46 0 81.46-18.31Q81.46-19.21 81.12-20.01 80.78-20.8 80.18-21.39 79.58-21.97 78.79-22.31 78-22.66 77.09-22.66L77.09-22.66 75.6-22.66Q74.7-22.66 73.91-22.31 73.11-21.97 72.53-21.39 71.94-20.8 71.6-20.01 71.26-19.21 71.26-18.31L71.26-18.31 71.26 0 68.25 0 68.25-25 69.26-25 70.89-22.46Q71.92-23.85 73.47-24.67 75.02-25.49 76.85-25.49L76.85-25.49 77.09-25.49Q79.22-25.49 80.93-24.44 82.63-23.39 83.56-21.66L83.56-21.66Q84.03-22.51 84.71-23.22 85.39-23.93 86.22-24.43 87.05-24.93 88.03-25.21 89.01-25.49 90.06-25.49L90.06-25.49 90.3-25.49Q91.81-25.49 93.16-24.91 94.5-24.34 95.5-23.34 96.5-22.34 97.08-21 97.65-19.65 97.65-18.14L97.65-18.14 97.65 0ZM123.84-9.16L123.84-8.11Q123.84-6.32 123.12-4.76 122.4-3.2 121.19-2.03 119.99-0.85 118.39-0.18 116.79 0.49 115 0.49L115 0.49 112.49 0.49Q110.71 0.49 109.11-0.18 107.51-0.85 106.3-2.03 105.09-3.2 104.37-4.76 103.65-6.32 103.65-8.11L103.65-8.11 103.65-9.5 106.8-10.01 106.8-8.11Q106.8-6.93 107.28-5.92 107.75-4.91 108.56-4.14 109.37-3.37 110.43-2.93 111.49-2.49 112.66-2.49L112.66-2.49 114.86-2.49Q116.03-2.49 117.08-2.93 118.13-3.37 118.94-4.14 119.74-4.91 120.22-5.92 120.69-6.93 120.69-8.11L120.69-8.11 120.69-9.16Q120.69-10.96 119.99-12.16 119.28-13.35 118.11-14.2 116.93-15.04 115.46-15.63 113.98-16.21 112.42-16.8 110.85-17.38 109.38-18.09 107.9-18.8 106.73-19.86 105.56-20.92 104.85-22.46 104.14-24 104.14-26.25L104.14-26.25 104.14-26.9Q104.14-28.69 104.81-30.25 105.48-31.81 106.66-32.98 107.83-34.16 109.4-34.83 110.98-35.5 112.76-35.5L112.76-35.5 115-35.5Q116.79-35.5 118.35-34.83 119.91-34.16 121.08-32.98 122.26-31.81 122.93-30.25 123.6-28.69 123.6-26.9L123.6-26.9 123.6-26 120.45-25.49 120.45-26.9Q120.45-28.08 120.01-29.09 119.57-30.1 118.81-30.86 118.06-31.62 117.04-32.06 116.03-32.5 114.86-32.5L114.86-32.5 112.91-32.5Q111.73-32.5 110.72-32.06 109.71-31.62 108.94-30.86 108.17-30.1 107.73-29.09 107.29-28.08 107.29-26.9L107.29-26.9 107.29-26.25Q107.29-24.56 108-23.41 108.71-22.27 109.88-21.45 111.05-20.63 112.53-20.03 114-19.43 115.57-18.81 117.13-18.19 118.61-17.44 120.08-16.7 121.25-15.61 122.43-14.53 123.13-12.96 123.84-11.4 123.84-9.16L123.84-9.16ZM147.81 0L143.91 0 133.7-12.5 143.91-25 147.81-25 137.37-12.5 147.81 0ZM133.12 0L130.11 0 130.11-35.01 133.12-35.01 133.12 0ZM168.52-6.86L168.52-6.86Q168.52-5.35 167.94-4 167.37-2.66 166.37-1.66 165.37-0.66 164.02-0.09 162.68 0.49 161.17 0.49L161.17 0.49 159.16 0.49Q157.65 0.49 156.31-0.09 154.97-0.66 153.96-1.66 152.96-2.66 152.39-4 151.82-5.35 151.82-6.86L151.82-6.86 151.82-18.14Q151.82-19.65 152.39-21 152.96-22.34 153.96-23.34 154.97-24.34 156.31-24.91 157.65-25.49 159.16-25.49L159.16-25.49 161.17-25.49Q162.68-25.49 164.02-24.91 165.37-24.34 166.37-23.34 167.37-22.34 167.94-21 168.52-19.65 168.52-18.14L168.52-18.14 168.52-12.26 154.82-12.26 154.82-6.69Q154.82-5.79 155.16-4.99 155.5-4.2 156.09-3.61 156.67-3.03 157.47-2.69 158.26-2.34 159.16-2.34L159.16-2.34 161.17-2.34Q162.07-2.34 162.86-2.69 163.66-3.03 164.24-3.61 164.83-4.2 165.17-4.99 165.51-5.79 165.51-6.69L165.51-6.69 165.51-8.35 168.52-7.86 168.52-6.86ZM165.51-14.6L165.51-18.31Q165.51-19.21 165.17-20.01 164.83-20.8 164.24-21.39 163.66-21.97 162.86-22.31 162.07-22.66 161.17-22.66L161.17-22.66 159.16-22.66Q158.26-22.66 157.47-22.31 156.67-21.97 156.09-21.39 155.5-20.8 155.16-20.01 154.82-19.21 154.82-18.31L154.82-18.31 154.82-14.6 165.51-14.6ZM186.36 0L183.63 0Q182.26 0 181.05-0.51 179.84-1.03 178.95-1.93 178.06-2.83 177.53-4.03 177.01-5.22 177.01-6.59L177.01-6.59 177.01-22.14 172.52-22.14 172.52-25 177.01-25 177.01-31.01 180.01-31.49 180.01-25 186.36-25 186.36-22.14 180.01-22.14 180.01-6.45Q180.01-5.69 180.29-5.04 180.57-4.39 181.06-3.91 181.55-3.42 182.21-3.14 182.87-2.86 183.63-2.86L183.63-2.86 186.36-2.86 186.36 0ZM208.57-6.86L208.57-6.86Q208.57-5.35 208-4 207.43-2.66 206.43-1.66 205.42-0.66 204.08-0.09 202.74 0.49 201.23 0.49L201.23 0.49 199.22 0.49Q197.71 0.49 196.37-0.09 195.02-0.66 194.02-1.66 193.02-2.66 192.45-4 191.87-5.35 191.87-6.86L191.87-6.86 191.87-18.14Q191.87-19.65 192.45-21 193.02-22.34 194.02-23.34 195.02-24.34 196.37-24.91 197.71-25.49 199.22-25.49L199.22-25.49 201.23-25.49Q202.74-25.49 204.08-24.91 205.42-24.34 206.43-23.34 207.43-22.34 208-21 208.57-19.65 208.57-18.14L208.57-18.14 208.57-17.14 205.57-16.65 205.57-18.31Q205.57-19.21 205.23-20.01 204.89-20.8 204.3-21.39 203.72-21.97 202.92-22.31 202.13-22.66 201.23-22.66L201.23-22.66 199.22-22.66Q198.32-22.66 197.53-22.31 196.73-21.97 196.15-21.39 195.56-20.8 195.22-20.01 194.88-19.21 194.88-18.31L194.88-18.31 194.88-6.69Q194.88-5.79 195.22-4.99 195.56-4.2 196.15-3.61 196.73-3.03 197.53-2.69 198.32-2.34 199.22-2.34L199.22-2.34 201.23-2.34Q202.13-2.34 202.92-2.69 203.72-3.03 204.3-3.61 204.89-4.2 205.23-4.99 205.57-5.79 205.57-6.69L205.57-6.69 205.57-8.35 208.57-7.86 208.57-6.86ZM231.28 0L228.27 0 228.27-18.31Q228.27-19.21 227.93-20.01 227.59-20.8 227-21.39 226.42-21.97 225.62-22.31 224.83-22.66 223.93-22.66L223.93-22.66 221.93-22.66Q221.02-22.66 220.23-22.31 219.44-21.97 218.85-21.39 218.26-20.8 217.92-20.01 217.58-19.21 217.58-18.31L217.58-18.31 217.58 0 214.58 0 214.58-35.01 217.58-35.01 217.58-22.9Q218.61-24.12 220.05-24.8 221.49-25.49 223.17-25.49L223.17-25.49 223.93-25.49Q225.44-25.49 226.78-24.91 228.13-24.34 229.13-23.34 230.13-22.34 230.7-21 231.28-19.65 231.28-18.14L231.28-18.14 231.28 0Z" opacity="1" transform="matrix(1,0,0,1,0,0)" fill="black" class="wordmark-text-0" id="SvgjsPath2956"></path></svg></g></svg></g><g transform="matrix(1,0,0,1,277.489674287363,76.39435566760096)"><svg viewBox="0 0 118.03032571263695 38.19482928442701" height="38.19482928442701" width="118.03032571263695"><g transform="matrix(1,0,0,1,0,0)"><svg width="118.03032571263695" viewBox="1.85 -35.5 142.14000000000001 46" height="38.19482928442701" data-palette-color="url(#7dcf5911-11a9-421d-a207-4f9184c17acf)"><path d="M4.7-8.9Q4.85-7.2 5.98-5.65 7.1-4.1 9.08-3.13 11.05-2.15 13.6-2.15L13.6-2.15Q17.45-2.15 20.03-3.88 22.6-5.6 22.6-9.35L22.6-9.35Q22.6-11.55 21.35-13.03 20.1-14.5 18.25-15.38 16.4-16.25 13.2-17.4L13.2-17.4Q9.75-18.6 7.68-19.63 5.6-20.65 4.17-22.4 2.75-24.15 2.75-26.9L2.75-26.9Q2.75-29.1 4-31.08 5.25-33.05 7.78-34.27 10.3-35.5 14-35.5L14-35.5Q16.45-35.5 18.05-35.15 19.65-34.8 21.3-34L21.3-34 20.45-31.35Q17.6-32.8 14.1-32.8L14.1-32.8Q10.25-32.8 7.95-31.2 5.65-29.6 5.65-26.75L5.65-26.75Q5.65-24.95 6.8-23.73 7.95-22.5 9.63-21.75 11.3-21 14.3-19.95L14.3-19.95Q17.95-18.7 20.2-17.63 22.45-16.55 24.03-14.58 25.6-12.6 25.6-9.6L25.6-9.6Q25.6-5 22.68-2.23 19.75 0.55 13.65 0.55L13.65 0.55Q9.95 0.55 7.33-0.83 4.7-2.2 3.33-4.38 1.95-6.55 1.85-8.9L1.85-8.9 4.7-8.9ZM46.4 0L36.8-15.85 34.2-13.6 34.2 0 31.4 0 31.4-35 34.2-35 34.2-16.75 44.2-26 46.2-24.05 38.8-17.6Q42.2-11.95 49.75 0L49.75 0 46.4 0ZM67.05-1.75Q65.25-0.6 62.95 0 60.65 0.6 58.34 0.6L58.34 0.6Q54.65 0.6 52.47-1.23 50.3-3.05 50.3-6.7L50.3-6.7 50.3-16.95Q50.3-21 52.82-23.25 55.34-25.5 59.5-25.5L59.5-25.5Q63.65-25.5 65.97-23.28 68.3-21.05 68.3-17.1L68.3-17.1 68.3-10.6 53.09-9.75 53.09-6.7Q53.09-4.3 54.65-3.1 56.2-1.9 58.7-1.9L58.7-1.9Q62.2-1.9 65.95-3.9L65.95-3.9 67.05-1.75ZM65.5-17.45Q65.5-20.55 63.55-21.83 61.59-23.1 59.45-23.1L59.45-23.1Q56.7-23.1 54.9-21.6 53.09-20.1 53.09-16.9L53.09-16.9 53.09-12.5 65.5-13.1 65.5-17.45ZM77.74 0.65Q74.94-0.15 73.69-1.9 72.44-3.65 72.44-6.6L72.44-6.6 72.44-35 75.24-35 75.24-25.05 81.24-25.05 80.04-22.4 75.24-22.4 75.24-6.6Q75.24-2.6 78.54-1.5L78.54-1.5 77.74 0.65ZM100.29-0.3Q97.19 0.5 94.29 0.5L94.29 0.5Q91.59 0.5 89.79-0.1L89.79-0.1Q86.84-1.1 85.52-3.18 84.19-5.25 84.19-9L84.19-9 84.19-15.4Q84.19-20.35 86.79-22.93 89.39-25.5 93.49-25.5L93.49-25.5Q96.74-25.5 100.19-23.9L100.19-23.9 99.39-21.85Q96.54-23 93.89-23L93.89-23Q90.79-23 88.89-21.23 86.99-19.45 86.99-15.7L86.99-15.7 86.99-8.45Q86.99-5 89.07-3.45 91.14-1.9 94.59-1.9L94.59-1.9Q96.84-1.9 99.69-2.55L99.69-2.55 100.29-0.3ZM118.74 0L118.74-17.15Q118.74-20.2 116.96-21.58 115.19-22.95 112.39-22.95L112.39-22.95Q110.69-22.95 108.94-22.48 107.19-22 105.84-21.25L105.84-21.25 105.84 0 103.04 0 103.04-35 105.84-35 105.84-23.7Q107.09-24.55 108.84-25.03 110.59-25.5 112.49-25.5L112.49-25.5Q115.09-25.5 117.24-24.55L117.24-24.55Q119.24-23.65 120.36-21.85 121.49-20.05 121.49-17.3L121.49-17.3 121.49 0 118.74 0ZM136.29 8.35Q139.64 7.1 139.64 3.15L139.64 3.15 139.64-2.45Q138.69-0.85 136.79-0.13 134.89 0.6 132.69 0.6L132.69 0.6Q128.29 0.6 125.91-1.78 123.54-4.15 123.54-8.8L123.54-8.8 123.54-25.05 126.24-25.05 126.24-8.3Q126.24-5.1 127.99-3.53 129.74-1.95 132.69-1.95L132.69-1.95Q135.79-1.95 137.69-3.5 139.59-5.05 139.59-8.3L139.59-8.3 139.59-18.15Q139.59-20.55 139.74-21.73 139.89-22.9 140.66-23.93 141.44-24.95 143.24-25.5L143.24-25.5 143.99-23.6Q142.29-22.85 142.29-20.1L142.29-20.1 142.29 3.05Q142.29 6.1 141.09 7.85 139.89 9.6 137.04 10.5L137.04 10.5 136.29 8.35Z" opacity="1" transform="matrix(1,0,0,1,0,0)" fill="black" class="slogan-text-1" id="SvgjsPath2955"></path></svg></g></svg></g></svg></g></svg></g><g transform="matrix(1,0,0,1,410.1104247866511,0)"><svg viewBox="0 0 183.3443266016682 158.36225360370267" height="158.36225360370267" width="183.3443266016682"><g><svg xmlns="http://www.w3.org/2000/svg" xmlns:xlink="http://www.w3.org/1999/xlink" version="1.1" x="0" y="0" viewBox="5 10.791 85.00000024073253 73.41809721596914" enable-background="new 0 0 95 95" xml:space="preserve" height="158.36225360370267" width="183.3443266016682" class="icon-icon-0" data-fill-palette-color="accent" id="SvgjsSvg2954"><g fill="black"><path d="M83.44 79.794L73.397 54.166H79.706A2.126 2.126 0 0 0 79.706 49.915H71.732L68.919 42.734A14.2 14.2 0 0 0 73.655 32.126C73.655 25.399 68.987 19.772 62.721 18.282V12.172C62.721 11.41 62.105 10.791 61.347 10.791H57.497C56.735 10.791 56.121 11.41 56.121 12.172V18.282C49.851 19.772 45.185 25.4 45.185 32.126A14.2 14.2 0 0 0 49.754 42.579L46.88 49.915H38.96A2.126 2.126 0 0 0 38.96 54.166H45.216L35.17 79.794C33.128 85.346 33.898 85.712 36.881 80.607L51.136 54.166H54.229A5.3 5.3 0 0 0 59.337 58.062C61.772 58.062 63.823 56.409 64.44 54.166H67.472L81.729 80.607C84.712 85.712 85.484 85.346 83.44 79.794M59.419 23.657A8.47 8.47 0 0 1 67.891 32.127 8.47 8.47 0 0 1 63.49 39.56L62.609 39.98A8.4 8.4 0 0 1 59.419 40.604C54.743 40.604 50.947 36.81 50.947 32.127 50.947 27.446 54.744 23.657 59.419 23.657M63.798 49.916A5.28 5.28 0 0 0 59.336 47.466 5.27 5.27 0 0 0 54.872 49.916H53.425L55.622 45.85A14.4 14.4 0 0 0 63.019 45.906L65.182 49.916z" fill="black"></path><path d="M10.088 22.674V73.06H84.912V22.674zM18.793 71.958H11.189V65.505H18.793zM18.793 65.432H11.189V58.612H18.793zM18.793 58.245H11.189V51.424H18.793zM18.793 51.351H11.189V44.384H18.793zM18.793 44.31H11.189V37.49H18.793zM18.793 37.123H11.189V30.302H18.793zM18.793 30.229H11.189V23.776H18.793zM26.985 71.958H18.867V65.505H26.985zM26.985 65.432H18.867V58.612H26.985zM26.985 58.245H18.867V51.424H26.985zM26.985 51.351H18.867V44.384H26.985zM26.985 44.31H18.867V37.49H26.985zM26.985 37.123H18.867V30.302H26.985zM18.867 23.776H26.985V30.229H18.867M34.662 71.958H27.058V65.505H34.662zM34.662 65.432H27.058V58.612H34.662zM34.662 58.245H27.058V51.424H34.662zM34.662 51.351H27.058V44.384H34.662zM34.662 44.31H27.058V37.49H34.662zM34.662 37.123H27.058V30.302H34.662zM34.662 30.229H27.058V23.776H34.662zM43.367 71.958H35.763V65.505H43.367zM43.367 65.432H35.763V58.612H43.367zM43.367 58.245H35.763V51.424H43.367zM43.367 51.351H35.763V44.384H43.367zM43.367 44.31H35.763V37.49H43.367zM43.367 37.123H35.763V30.302H43.367zM43.367 30.229H35.763V23.776H43.367zM51.559 71.958H43.441V65.505H51.559zM51.559 65.432H43.441V58.612H51.559zM51.559 58.245H43.441V51.424H51.559zM51.559 51.351H43.441V44.384H51.559zM51.559 44.31H43.441V37.49H51.559zM51.559 37.123H43.441V30.302H51.559zM51.559 30.229H43.441V23.776H51.559zM59.236 71.958H51.632V65.505H59.236zM59.236 65.432H51.632V58.612H59.236zM59.236 58.245H51.632V51.424H59.236zM59.236 51.351H51.632V44.384H59.236zM59.236 44.31H51.632V37.49H59.236zM59.236 37.123H51.632V30.302H59.236zM59.236 30.229H51.632V23.776H59.236zM67.942 71.958H60.338V65.505H67.942zM67.942 65.432H60.338V58.612H67.942zM67.942 58.245H60.338V51.424H67.942zM67.942 51.351H60.338V44.384H67.942zM67.942 44.31H60.338V37.49H67.942zM67.942 37.123H60.338V30.302H67.942zM67.942 30.229H60.338V23.776H67.942zM76.133 71.958H68.015V65.505H76.133zM76.133 65.432H68.015V58.612H76.133zM76.133 58.245H68.015V51.424H76.133zM76.133 51.351H68.015V44.384H76.133zM76.133 44.31H68.015V37.49H76.133zM76.133 37.123H68.015V30.302H76.133zM76.133 30.229H68.015V23.776H76.133zM83.811 71.958H76.207V65.505H83.811zM83.811 65.432H76.207V58.612H83.811zM83.811 58.245H76.207V51.424H83.811zM83.811 51.351H76.207V44.384H83.811zM83.811 44.31H76.207V37.49H83.811zM83.811 37.123H76.207V30.302H83.811zM83.811 30.229H76.207V23.776H83.811z" fill="black"></path><polygon points="43.232,75.792 42.243,77.627 76.369,77.627 75.379,75.792  " fill="black"></polygon><path d="M87.92 18.107H69.942A18 18 0 0 1 72.016 19.942H87.92C88.055 19.942 88.165 20.052 88.165 20.187V75.546C88.165 75.681 88.055 75.791 87.92 75.791H85.421L86.14 77.626H87.92C89.067 77.626 90 76.693 90 75.546V20.188A2.08 2.08 0 0 0 87.92 18.107" fill="black"></path><path d="M6.835 75.547V20.188C6.835 20.053 6.945 19.943 7.08 19.943H46.822A17.5 17.5 0 0 1 48.897 18.108H7.08A2.08 2.08 0 0 0 5 20.188V75.547C5 76.694 5.933 77.627 7.08 77.627H32.471L33.19 75.792H7.08A0.245 0.245 0 0 1 6.835 75.547" fill="black"></path></g></svg></g></svg></g></svg></g><defs><mask></mask></defs></svg><rect width="395.52" height="105.54374768894857" fill="black" stroke="none" visibility="hidden"></rect></g></mask><mask><g id="SvgjsG2953"><svg viewBox="0 0 395.52 105.54374768894857" height="105.54374768894857" width="395.52"><g><svg viewBox="0 0 593.4547513883193 158.36225360370267" height="105.54374768894857" width="395.52"><g transform="matrix(1,0,0,1,0,21.886534325837346)"><svg viewBox="0 0 395.52 114.58918495202798" height="114.58918495202798" width="395.52"><g id="SvgjsG2952"><svg viewBox="0 0 395.52 114.58918495202798" height="114.58918495202798" width="395.52" id="SvgjsSvg2951"><g><svg viewBox="0 0 395.52 61.80393088094985" height="61.80393088094985" width="395.52"><g transform="matrix(1,0,0,1,0,0)"><svg width="395.52" viewBox="1 -35.5 230.28 35.99" height="61.80393088094985" data-palette-color="url(#399294a9-1766-4104-8cb8-4fd4273f13f6)"></svg></g></svg></g><g transform="matrix(1,0,0,1,277.489674287363,76.39435566760096)"><svg viewBox="0 0 118.03032571263695 38.19482928442701" height="38.19482928442701" width="118.03032571263695"><g transform="matrix(1,0,0,1,0,0)"><svg width="118.03032571263695" viewBox="1.85 -35.5 142.14000000000001 46" height="38.19482928442701" data-palette-color="url(#7dcf5911-11a9-421d-a207-4f9184c17acf)"><path d="M4.7-8.9Q4.85-7.2 5.98-5.65 7.1-4.1 9.08-3.13 11.05-2.15 13.6-2.15L13.6-2.15Q17.45-2.15 20.03-3.88 22.6-5.6 22.6-9.35L22.6-9.35Q22.6-11.55 21.35-13.03 20.1-14.5 18.25-15.38 16.4-16.25 13.2-17.4L13.2-17.4Q9.75-18.6 7.68-19.63 5.6-20.65 4.17-22.4 2.75-24.15 2.75-26.9L2.75-26.9Q2.75-29.1 4-31.08 5.25-33.05 7.78-34.27 10.3-35.5 14-35.5L14-35.5Q16.45-35.5 18.05-35.15 19.65-34.8 21.3-34L21.3-34 20.45-31.35Q17.6-32.8 14.1-32.8L14.1-32.8Q10.25-32.8 7.95-31.2 5.65-29.6 5.65-26.75L5.65-26.75Q5.65-24.95 6.8-23.73 7.95-22.5 9.63-21.75 11.3-21 14.3-19.95L14.3-19.95Q17.95-18.7 20.2-17.63 22.45-16.55 24.03-14.58 25.6-12.6 25.6-9.6L25.6-9.6Q25.6-5 22.68-2.23 19.75 0.55 13.65 0.55L13.65 0.55Q9.95 0.55 7.33-0.83 4.7-2.2 3.33-4.38 1.95-6.55 1.85-8.9L1.85-8.9 4.7-8.9ZM46.4 0L36.8-15.85 34.2-13.6 34.2 0 31.4 0 31.4-35 34.2-35 34.2-16.75 44.2-26 46.2-24.05 38.8-17.6Q42.2-11.95 49.75 0L49.75 0 46.4 0ZM67.05-1.75Q65.25-0.6 62.95 0 60.65 0.6 58.34 0.6L58.34 0.6Q54.65 0.6 52.47-1.23 50.3-3.05 50.3-6.7L50.3-6.7 50.3-16.95Q50.3-21 52.82-23.25 55.34-25.5 59.5-25.5L59.5-25.5Q63.65-25.5 65.97-23.28 68.3-21.05 68.3-17.1L68.3-17.1 68.3-10.6 53.09-9.75 53.09-6.7Q53.09-4.3 54.65-3.1 56.2-1.9 58.7-1.9L58.7-1.9Q62.2-1.9 65.95-3.9L65.95-3.9 67.05-1.75ZM65.5-17.45Q65.5-20.55 63.55-21.83 61.59-23.1 59.45-23.1L59.45-23.1Q56.7-23.1 54.9-21.6 53.09-20.1 53.09-16.9L53.09-16.9 53.09-12.5 65.5-13.1 65.5-17.45ZM77.74 0.65Q74.94-0.15 73.69-1.9 72.44-3.65 72.44-6.6L72.44-6.6 72.44-35 75.24-35 75.24-25.05 81.24-25.05 80.04-22.4 75.24-22.4 75.24-6.6Q75.24-2.6 78.54-1.5L78.54-1.5 77.74 0.65ZM100.29-0.3Q97.19 0.5 94.29 0.5L94.29 0.5Q91.59 0.5 89.79-0.1L89.79-0.1Q86.84-1.1 85.52-3.18 84.19-5.25 84.19-9L84.19-9 84.19-15.4Q84.19-20.35 86.79-22.93 89.39-25.5 93.49-25.5L93.49-25.5Q96.74-25.5 100.19-23.9L100.19-23.9 99.39-21.85Q96.54-23 93.89-23L93.89-23Q90.79-23 88.89-21.23 86.99-19.45 86.99-15.7L86.99-15.7 86.99-8.45Q86.99-5 89.07-3.45 91.14-1.9 94.59-1.9L94.59-1.9Q96.84-1.9 99.69-2.55L99.69-2.55 100.29-0.3ZM118.74 0L118.74-17.15Q118.74-20.2 116.96-21.58 115.19-22.95 112.39-22.95L112.39-22.95Q110.69-22.95 108.94-22.48 107.19-22 105.84-21.25L105.84-21.25 105.84 0 103.04 0 103.04-35 105.84-35 105.84-23.7Q107.09-24.55 108.84-25.03 110.59-25.5 112.49-25.5L112.49-25.5Q115.09-25.5 117.24-24.55L117.24-24.55Q119.24-23.65 120.36-21.85 121.49-20.05 121.49-17.3L121.49-17.3 121.49 0 118.74 0ZM136.29 8.35Q139.64 7.1 139.64 3.15L139.64 3.15 139.64-2.45Q138.69-0.85 136.79-0.13 134.89 0.6 132.69 0.6L132.69 0.6Q128.29 0.6 125.91-1.78 123.54-4.15 123.54-8.8L123.54-8.8 123.54-25.05 126.24-25.05 126.24-8.3Q126.24-5.1 127.99-3.53 129.74-1.95 132.69-1.95L132.69-1.95Q135.79-1.95 137.69-3.5 139.59-5.05 139.59-8.3L139.59-8.3 139.59-18.15Q139.59-20.55 139.74-21.73 139.89-22.9 140.66-23.93 141.44-24.95 143.24-25.5L143.24-25.5 143.99-23.6Q142.29-22.85 142.29-20.1L142.29-20.1 142.29 3.05Q142.29 6.1 141.09 7.85 139.89 9.6 137.04 10.5L137.04 10.5 136.29 8.35Z" opacity="1" transform="matrix(1,0,0,1,0,0)" fill="black" class="slogan-text-1" id="SvgjsPath2950"></path></svg></g></svg></g></svg></g></svg></g><g transform="matrix(1,0,0,1,410.1104247866511,0)"><svg viewBox="0 0 183.3443266016682 158.36225360370267" height="158.36225360370267" width="183.3443266016682"><g><svg xmlns="http://www.w3.org/2000/svg" xmlns:xlink="http://www.w3.org/1999/xlink" version="1.1" x="0" y="0" viewBox="5 10.791 85.00000024073253 73.41809721596914" enable-background="new 0 0 95 95" xml:space="preserve" height="158.36225360370267" width="183.3443266016682" class="icon-icon-0" data-fill-palette-color="accent" id="SvgjsSvg2949"><g fill="black"><path d="M83.44 79.794L73.397 54.166H79.706A2.126 2.126 0 0 0 79.706 49.915H71.732L68.919 42.734A14.2 14.2 0 0 0 73.655 32.126C73.655 25.399 68.987 19.772 62.721 18.282V12.172C62.721 11.41 62.105 10.791 61.347 10.791H57.497C56.735 10.791 56.121 11.41 56.121 12.172V18.282C49.851 19.772 45.185 25.4 45.185 32.126A14.2 14.2 0 0 0 49.754 42.579L46.88 49.915H38.96A2.126 2.126 0 0 0 38.96 54.166H45.216L35.17 79.794C33.128 85.346 33.898 85.712 36.881 80.607L51.136 54.166H54.229A5.3 5.3 0 0 0 59.337 58.062C61.772 58.062 63.823 56.409 64.44 54.166H67.472L81.729 80.607C84.712 85.712 85.484 85.346 83.44 79.794M59.419 23.657A8.47 8.47 0 0 1 67.891 32.127 8.47 8.47 0 0 1 63.49 39.56L62.609 39.98A8.4 8.4 0 0 1 59.419 40.604C54.743 40.604 50.947 36.81 50.947 32.127 50.947 27.446 54.744 23.657 59.419 23.657M63.798 49.916A5.28 5.28 0 0 0 59.336 47.466 5.27 5.27 0 0 0 54.872 49.916H53.425L55.622 45.85A14.4 14.4 0 0 0 63.019 45.906L65.182 49.916z" fill="black"></path><path d="M10.088 22.674V73.06H84.912V22.674zM18.793 71.958H11.189V65.505H18.793zM18.793 65.432H11.189V58.612H18.793zM18.793 58.245H11.189V51.424H18.793zM18.793 51.351H11.189V44.384H18.793zM18.793 44.31H11.189V37.49H18.793zM18.793 37.123H11.189V30.302H18.793zM18.793 30.229H11.189V23.776H18.793zM26.985 71.958H18.867V65.505H26.985zM26.985 65.432H18.867V58.612H26.985zM26.985 58.245H18.867V51.424H26.985zM26.985 51.351H18.867V44.384H26.985zM26.985 44.31H18.867V37.49H26.985zM26.985 37.123H18.867V30.302H26.985zM18.867 23.776H26.985V30.229H18.867M34.662 71.958H27.058V65.505H34.662zM34.662 65.432H27.058V58.612H34.662zM34.662 58.245H27.058V51.424H34.662zM34.662 51.351H27.058V44.384H34.662zM34.662 44.31H27.058V37.49H34.662zM34.662 37.123H27.058V30.302H34.662zM34.662 30.229H27.058V23.776H34.662zM43.367 71.958H35.763V65.505H43.367zM43.367 65.432H35.763V58.612H43.367zM43.367 58.245H35.763V51.424H43.367zM43.367 51.351H35.763V44.384H43.367zM43.367 44.31H35.763V37.49H43.367zM43.367 37.123H35.763V30.302H43.367zM43.367 30.229H35.763V23.776H43.367zM51.559 71.958H43.441V65.505H51.559zM51.559 65.432H43.441V58.612H51.559zM51.559 58.245H43.441V51.424H51.559zM51.559 51.351H43.441V44.384H51.559zM51.559 44.31H43.441V37.49H51.559zM51.559 37.123H43.441V30.302H51.559zM51.559 30.229H43.441V23.776H51.559zM59.236 71.958H51.632V65.505H59.236zM59.236 65.432H51.632V58.612H59.236zM59.236 58.245H51.632V51.424H59.236zM59.236 51.351H51.632V44.384H59.236zM59.236 44.31H51.632V37.49H59.236zM59.236 37.123H51.632V30.302H59.236zM59.236 30.229H51.632V23.776H59.236zM67.942 71.958H60.338V65.505H67.942zM67.942 65.432H60.338V58.612H67.942zM67.942 58.245H60.338V51.424H67.942zM67.942 51.351H60.338V44.384H67.942zM67.942 44.31H60.338V37.49H67.942zM67.942 37.123H60.338V30.302H67.942zM67.942 30.229H60.338V23.776H67.942zM76.133 71.958H68.015V65.505H76.133zM76.133 65.432H68.015V58.612H76.133zM76.133 58.245H68.015V51.424H76.133zM76.133 51.351H68.015V44.384H76.133zM76.133 44.31H68.015V37.49H76.133zM76.133 37.123H68.015V30.302H76.133zM76.133 30.229H68.015V23.776H76.133zM83.811 71.958H76.207V65.505H83.811zM83.811 65.432H76.207V58.612H83.811zM83.811 58.245H76.207V51.424H83.811zM83.811 51.351H76.207V44.384H83.811zM83.811 44.31H76.207V37.49H83.811zM83.811 37.123H76.207V30.302H83.811zM83.811 30.229H76.207V23.776H83.811z" fill="black"></path><polygon points="43.232,75.792 42.243,77.627 76.369,77.627 75.379,75.792  " fill="black"></polygon><path d="M87.92 18.107H69.942A18 18 0 0 1 72.016 19.942H87.92C88.055 19.942 88.165 20.052 88.165 20.187V75.546C88.165 75.681 88.055 75.791 87.92 75.791H85.421L86.14 77.626H87.92C89.067 77.626 90 76.693 90 75.546V20.188A2.08 2.08 0 0 0 87.92 18.107" fill="black"></path><path d="M6.835 75.547V20.188C6.835 20.053 6.945 19.943 7.08 19.943H46.822A17.5 17.5 0 0 1 48.897 18.108H7.08A2.08 2.08 0 0 0 5 20.188V75.547C5 76.694 5.933 77.627 7.08 77.627H32.471L33.19 75.792H7.08A0.245 0.245 0 0 1 6.835 75.547" fill="black"></path></g></svg></g></svg></g></svg></g><defs><mask></mask></defs><mask><g id="SvgjsG2948"><svg viewBox="0 0 395.52 105.54374768894857" height="105.54374768894857" width="395.52"><g><svg viewBox="0 0 593.4547513883193 158.36225360370267" height="105.54374768894857" width="395.52"><g transform="matrix(1,0,0,1,0,21.886534325837346)"><svg viewBox="0 0 395.52 114.58918495202798" height="114.58918495202798" width="395.52"><g id="SvgjsG2947"><svg viewBox="0 0 395.52 114.58918495202798" height="114.58918495202798" width="395.52" id="SvgjsSvg2946"><g><svg viewBox="0 0 395.52 61.80393088094985" height="61.80393088094985" width="395.52"><g transform="matrix(1,0,0,1,0,0)"><svg width="395.52" viewBox="1 -35.5 230.28 35.99" height="61.80393088094985" data-palette-color="url(#399294a9-1766-4104-8cb8-4fd4273f13f6)"><path d="M20.85-32.01L12.5-32.01 12.5 0 9.35 0 9.35-32.01 1-32.01 1-35.01 20.85-35.01 20.85-32.01ZM39.55-6.86L39.55-6.86Q39.55-5.35 38.97-4 38.4-2.66 37.4-1.66 36.4-0.66 35.06-0.09 33.71 0.49 32.2 0.49L32.2 0.49 30.2 0.49Q28.68 0.49 27.34-0.09 26-0.66 25-1.66 24-2.66 23.42-4 22.85-5.35 22.85-6.86L22.85-6.86 22.85-18.14Q22.85-19.65 23.42-21 24-22.34 25-23.34 26-24.34 27.34-24.91 28.68-25.49 30.2-25.49L30.2-25.49 32.2-25.49Q33.71-25.49 35.06-24.91 36.4-24.34 37.4-23.34 38.4-22.34 38.97-21 39.55-19.65 39.55-18.14L39.55-18.14 39.55-12.26 25.85-12.26 25.85-6.69Q25.85-5.79 26.19-4.99 26.54-4.2 27.12-3.61 27.71-3.03 28.5-2.69 29.29-2.34 30.2-2.34L30.2-2.34 32.2-2.34Q33.1-2.34 33.9-2.69 34.69-3.03 35.28-3.61 35.86-4.2 36.2-4.99 36.55-5.79 36.55-6.69L36.55-6.69 36.55-8.35 39.55-7.86 39.55-6.86ZM36.55-14.6L36.55-18.31Q36.55-19.21 36.2-20.01 35.86-20.8 35.28-21.39 34.69-21.97 33.9-22.31 33.1-22.66 32.2-22.66L32.2-22.66 30.2-22.66Q29.29-22.66 28.5-22.31 27.71-21.97 27.12-21.39 26.54-20.8 26.19-20.01 25.85-19.21 25.85-18.31L25.85-18.31 25.85-14.6 36.55-14.6ZM62.25 0L61.25 0 59.59-2.49Q58.56-1.15 57.03-0.33 55.49 0.49 53.66 0.49L53.66 0.49 52.9 0.49Q51.39 0.49 50.04-0.09 48.7-0.66 47.7-1.66 46.7-2.66 46.13-4 45.55-5.35 45.55-6.86L45.55-6.86 45.55-7.1Q45.55-8.62 46.13-9.96 46.7-11.3 47.7-12.3 48.7-13.31 50.04-13.88 51.39-14.45 52.9-14.45L52.9-14.45 59.25-14.45 59.25-18.31Q59.25-19.21 58.91-20.01 58.56-20.8 57.98-21.39 57.39-21.97 56.6-22.31 55.81-22.66 54.9-22.66L54.9-22.66 53.14-22.66Q52.24-22.66 51.45-22.31 50.65-21.97 50.07-21.39 49.48-20.8 49.14-20.01 48.8-19.21 48.8-18.31L48.8-18.31 48.8-17.41 45.8-17.9 45.8-18.14Q45.8-19.65 46.37-21 46.94-22.34 47.94-23.34 48.95-24.34 50.29-24.91 51.63-25.49 53.14-25.49L53.14-25.49 54.9-25.49Q56.42-25.49 57.76-24.91 59.1-24.34 60.1-23.34 61.1-22.34 61.68-21 62.25-19.65 62.25-18.14L62.25-18.14 62.25 0ZM59.25-6.69L59.25-12.11 52.9-12.11Q52-12.11 51.2-11.77 50.41-11.43 49.82-10.83 49.24-10.23 48.9-9.44 48.55-8.64 48.55-7.74L48.55-7.74 48.55-6.69Q48.55-5.79 48.9-4.99 49.24-4.2 49.82-3.61 50.41-3.03 51.2-2.69 52-2.34 52.9-2.34L52.9-2.34 54.9-2.34Q55.81-2.34 56.6-2.69 57.39-3.03 57.98-3.61 58.56-4.2 58.91-4.99 59.25-5.79 59.25-6.69L59.25-6.69ZM97.65 0L94.65 0 94.65-18.31Q94.65-19.21 94.3-20.01 93.96-20.8 93.38-21.39 92.79-21.97 92-22.31 91.2-22.66 90.3-22.66L90.3-22.66 88.81-22.66Q87.91-22.66 87.11-22.31 86.32-21.97 85.72-21.39 85.12-20.8 84.78-20.01 84.44-19.21 84.44-18.31L84.44-18.31 84.44 0 81.46 0 81.46-18.31Q81.46-19.21 81.12-20.01 80.78-20.8 80.18-21.39 79.58-21.97 78.79-22.31 78-22.66 77.09-22.66L77.09-22.66 75.6-22.66Q74.7-22.66 73.91-22.31 73.11-21.97 72.53-21.39 71.94-20.8 71.6-20.01 71.26-19.21 71.26-18.31L71.26-18.31 71.26 0 68.25 0 68.25-25 69.26-25 70.89-22.46Q71.92-23.85 73.47-24.67 75.02-25.49 76.85-25.49L76.85-25.49 77.09-25.49Q79.22-25.49 80.93-24.44 82.63-23.39 83.56-21.66L83.56-21.66Q84.03-22.51 84.71-23.22 85.39-23.93 86.22-24.43 87.05-24.93 88.03-25.21 89.01-25.49 90.06-25.49L90.06-25.49 90.3-25.49Q91.81-25.49 93.16-24.91 94.5-24.34 95.5-23.34 96.5-22.34 97.08-21 97.65-19.65 97.65-18.14L97.65-18.14 97.65 0ZM123.84-9.16L123.84-8.11Q123.84-6.32 123.12-4.76 122.4-3.2 121.19-2.03 119.99-0.85 118.39-0.18 116.79 0.49 115 0.49L115 0.49 112.49 0.49Q110.71 0.49 109.11-0.18 107.51-0.85 106.3-2.03 105.09-3.2 104.37-4.76 103.65-6.32 103.65-8.11L103.65-8.11 103.65-9.5 106.8-10.01 106.8-8.11Q106.8-6.93 107.28-5.92 107.75-4.91 108.56-4.14 109.37-3.37 110.43-2.93 111.49-2.49 112.66-2.49L112.66-2.49 114.86-2.49Q116.03-2.49 117.08-2.93 118.13-3.37 118.94-4.14 119.74-4.91 120.22-5.92 120.69-6.93 120.69-8.11L120.69-8.11 120.69-9.16Q120.69-10.96 119.99-12.16 119.28-13.35 118.11-14.2 116.93-15.04 115.46-15.63 113.98-16.21 112.42-16.8 110.85-17.38 109.38-18.09 107.9-18.8 106.73-19.86 105.56-20.92 104.85-22.46 104.14-24 104.14-26.25L104.14-26.25 104.14-26.9Q104.14-28.69 104.81-30.25 105.48-31.81 106.66-32.98 107.83-34.16 109.4-34.83 110.98-35.5 112.76-35.5L112.76-35.5 115-35.5Q116.79-35.5 118.35-34.83 119.91-34.16 121.08-32.98 122.26-31.81 122.93-30.25 123.6-28.69 123.6-26.9L123.6-26.9 123.6-26 120.45-25.49 120.45-26.9Q120.45-28.08 120.01-29.09 119.57-30.1 118.81-30.86 118.06-31.62 117.04-32.06 116.03-32.5 114.86-32.5L114.86-32.5 112.91-32.5Q111.73-32.5 110.72-32.06 109.71-31.62 108.94-30.86 108.17-30.1 107.73-29.09 107.29-28.08 107.29-26.9L107.29-26.9 107.29-26.25Q107.29-24.56 108-23.41 108.71-22.27 109.88-21.45 111.05-20.63 112.53-20.03 114-19.43 115.57-18.81 117.13-18.19 118.61-17.44 120.08-16.7 121.25-15.61 122.43-14.53 123.13-12.96 123.84-11.4 123.84-9.16L123.84-9.16ZM147.81 0L143.91 0 133.7-12.5 143.91-25 147.81-25 137.37-12.5 147.81 0ZM133.12 0L130.11 0 130.11-35.01 133.12-35.01 133.12 0ZM168.52-6.86L168.52-6.86Q168.52-5.35 167.94-4 167.37-2.66 166.37-1.66 165.37-0.66 164.02-0.09 162.68 0.49 161.17 0.49L161.17 0.49 159.16 0.49Q157.65 0.49 156.31-0.09 154.97-0.66 153.96-1.66 152.96-2.66 152.39-4 151.82-5.35 151.82-6.86L151.82-6.86 151.82-18.14Q151.82-19.65 152.39-21 152.96-22.34 153.96-23.34 154.97-24.34 156.31-24.91 157.65-25.49 159.16-25.49L159.16-25.49 161.17-25.49Q162.68-25.49 164.02-24.91 165.37-24.34 166.37-23.34 167.37-22.34 167.94-21 168.52-19.65 168.52-18.14L168.52-18.14 168.52-12.26 154.82-12.26 154.82-6.69Q154.82-5.79 155.16-4.99 155.5-4.2 156.09-3.61 156.67-3.03 157.47-2.69 158.26-2.34 159.16-2.34L159.16-2.34 161.17-2.34Q162.07-2.34 162.86-2.69 163.66-3.03 164.24-3.61 164.83-4.2 165.17-4.99 165.51-5.79 165.51-6.69L165.51-6.69 165.51-8.35 168.52-7.86 168.52-6.86ZM165.51-14.6L165.51-18.31Q165.51-19.21 165.17-20.01 164.83-20.8 164.24-21.39 163.66-21.97 162.86-22.31 162.07-22.66 161.17-22.66L161.17-22.66 159.16-22.66Q158.26-22.66 157.47-22.31 156.67-21.97 156.09-21.39 155.5-20.8 155.16-20.01 154.82-19.21 154.82-18.31L154.82-18.31 154.82-14.6 165.51-14.6ZM186.36 0L183.63 0Q182.26 0 181.05-0.51 179.84-1.03 178.95-1.93 178.06-2.83 177.53-4.03 177.01-5.22 177.01-6.59L177.01-6.59 177.01-22.14 172.52-22.14 172.52-25 177.01-25 177.01-31.01 180.01-31.49 180.01-25 186.36-25 186.36-22.14 180.01-22.14 180.01-6.45Q180.01-5.69 180.29-5.04 180.57-4.39 181.06-3.91 181.55-3.42 182.21-3.14 182.87-2.86 183.63-2.86L183.63-2.86 186.36-2.86 186.36 0ZM208.57-6.86L208.57-6.86Q208.57-5.35 208-4 207.43-2.66 206.43-1.66 205.42-0.66 204.08-0.09 202.74 0.49 201.23 0.49L201.23 0.49 199.22 0.49Q197.71 0.49 196.37-0.09 195.02-0.66 194.02-1.66 193.02-2.66 192.45-4 191.87-5.35 191.87-6.86L191.87-6.86 191.87-18.14Q191.87-19.65 192.45-21 193.02-22.34 194.02-23.34 195.02-24.34 196.37-24.91 197.71-25.49 199.22-25.49L199.22-25.49 201.23-25.49Q202.74-25.49 204.08-24.91 205.42-24.34 206.43-23.34 207.43-22.34 208-21 208.57-19.65 208.57-18.14L208.57-18.14 208.57-17.14 205.57-16.65 205.57-18.31Q205.57-19.21 205.23-20.01 204.89-20.8 204.3-21.39 203.72-21.97 202.92-22.31 202.13-22.66 201.23-22.66L201.23-22.66 199.22-22.66Q198.32-22.66 197.53-22.31 196.73-21.97 196.15-21.39 195.56-20.8 195.22-20.01 194.88-19.21 194.88-18.31L194.88-18.31 194.88-6.69Q194.88-5.79 195.22-4.99 195.56-4.2 196.15-3.61 196.73-3.03 197.53-2.69 198.32-2.34 199.22-2.34L199.22-2.34 201.23-2.34Q202.13-2.34 202.92-2.69 203.72-3.03 204.3-3.61 204.89-4.2 205.23-4.99 205.57-5.79 205.57-6.69L205.57-6.69 205.57-8.35 208.57-7.86 208.57-6.86ZM231.28 0L228.27 0 228.27-18.31Q228.27-19.21 227.93-20.01 227.59-20.8 227-21.39 226.42-21.97 225.62-22.31 224.83-22.66 223.93-22.66L223.93-22.66 221.93-22.66Q221.02-22.66 220.23-22.31 219.44-21.97 218.85-21.39 218.26-20.8 217.92-20.01 217.58-19.21 217.58-18.31L217.58-18.31 217.58 0 214.58 0 214.58-35.01 217.58-35.01 217.58-22.9Q218.61-24.12 220.05-24.8 221.49-25.49 223.17-25.49L223.17-25.49 223.93-25.49Q225.44-25.49 226.78-24.91 228.13-24.34 229.13-23.34 230.13-22.34 230.7-21 231.28-19.65 231.28-18.14L231.28-18.14 231.28 0Z" opacity="1" transform="matrix(1,0,0,1,0,0)" fill="black" class="wordmark-text-0" id="SvgjsPath2945"></path></svg></g></svg></g><g transform="matrix(1,0,0,1,277.489674287363,76.39435566760096)"><svg viewBox="0 0 118.03032571263695 38.19482928442701" height="38.19482928442701" width="118.03032571263695"><g transform="matrix(1,0,0,1,0,0)"><svg width="118.03032571263695" viewBox="1.85 -35.5 142.14000000000001 46" height="38.19482928442701" data-palette-color="url(#7dcf5911-11a9-421d-a207-4f9184c17acf)"><path d="M4.7-8.9Q4.85-7.2 5.98-5.65 7.1-4.1 9.08-3.13 11.05-2.15 13.6-2.15L13.6-2.15Q17.45-2.15 20.03-3.88 22.6-5.6 22.6-9.35L22.6-9.35Q22.6-11.55 21.35-13.03 20.1-14.5 18.25-15.38 16.4-16.25 13.2-17.4L13.2-17.4Q9.75-18.6 7.68-19.63 5.6-20.65 4.17-22.4 2.75-24.15 2.75-26.9L2.75-26.9Q2.75-29.1 4-31.08 5.25-33.05 7.78-34.27 10.3-35.5 14-35.5L14-35.5Q16.45-35.5 18.05-35.15 19.65-34.8 21.3-34L21.3-34 20.45-31.35Q17.6-32.8 14.1-32.8L14.1-32.8Q10.25-32.8 7.95-31.2 5.65-29.6 5.65-26.75L5.65-26.75Q5.65-24.95 6.8-23.73 7.95-22.5 9.63-21.75 11.3-21 14.3-19.95L14.3-19.95Q17.95-18.7 20.2-17.63 22.45-16.55 24.03-14.58 25.6-12.6 25.6-9.6L25.6-9.6Q25.6-5 22.68-2.23 19.75 0.55 13.65 0.55L13.65 0.55Q9.95 0.55 7.33-0.83 4.7-2.2 3.33-4.38 1.95-6.55 1.85-8.9L1.85-8.9 4.7-8.9ZM46.4 0L36.8-15.85 34.2-13.6 34.2 0 31.4 0 31.4-35 34.2-35 34.2-16.75 44.2-26 46.2-24.05 38.8-17.6Q42.2-11.95 49.75 0L49.75 0 46.4 0ZM67.05-1.75Q65.25-0.6 62.95 0 60.65 0.6 58.34 0.6L58.34 0.6Q54.65 0.6 52.47-1.23 50.3-3.05 50.3-6.7L50.3-6.7 50.3-16.95Q50.3-21 52.82-23.25 55.34-25.5 59.5-25.5L59.5-25.5Q63.65-25.5 65.97-23.28 68.3-21.05 68.3-17.1L68.3-17.1 68.3-10.6 53.09-9.75 53.09-6.7Q53.09-4.3 54.65-3.1 56.2-1.9 58.7-1.9L58.7-1.9Q62.2-1.9 65.95-3.9L65.95-3.9 67.05-1.75ZM65.5-17.45Q65.5-20.55 63.55-21.83 61.59-23.1 59.45-23.1L59.45-23.1Q56.7-23.1 54.9-21.6 53.09-20.1 53.09-16.9L53.09-16.9 53.09-12.5 65.5-13.1 65.5-17.45ZM77.74 0.65Q74.94-0.15 73.69-1.9 72.44-3.65 72.44-6.6L72.44-6.6 72.44-35 75.24-35 75.24-25.05 81.24-25.05 80.04-22.4 75.24-22.4 75.24-6.6Q75.24-2.6 78.54-1.5L78.54-1.5 77.74 0.65ZM100.29-0.3Q97.19 0.5 94.29 0.5L94.29 0.5Q91.59 0.5 89.79-0.1L89.79-0.1Q86.84-1.1 85.52-3.18 84.19-5.25 84.19-9L84.19-9 84.19-15.4Q84.19-20.35 86.79-22.93 89.39-25.5 93.49-25.5L93.49-25.5Q96.74-25.5 100.19-23.9L100.19-23.9 99.39-21.85Q96.54-23 93.89-23L93.89-23Q90.79-23 88.89-21.23 86.99-19.45 86.99-15.7L86.99-15.7 86.99-8.45Q86.99-5 89.07-3.45 91.14-1.9 94.59-1.9L94.59-1.9Q96.84-1.9 99.69-2.55L99.69-2.55 100.29-0.3ZM118.74 0L118.74-17.15Q118.74-20.2 116.96-21.58 115.19-22.95 112.39-22.95L112.39-22.95Q110.69-22.95 108.94-22.48 107.19-22 105.84-21.25L105.84-21.25 105.84 0 103.04 0 103.04-35 105.84-35 105.84-23.7Q107.09-24.55 108.84-25.03 110.59-25.5 112.49-25.5L112.49-25.5Q115.09-25.5 117.24-24.55L117.24-24.55Q119.24-23.65 120.36-21.85 121.49-20.05 121.49-17.3L121.49-17.3 121.49 0 118.74 0ZM136.29 8.35Q139.64 7.1 139.64 3.15L139.64 3.15 139.64-2.45Q138.69-0.85 136.79-0.13 134.89 0.6 132.69 0.6L132.69 0.6Q128.29 0.6 125.91-1.78 123.54-4.15 123.54-8.8L123.54-8.8 123.54-25.05 126.24-25.05 126.24-8.3Q126.24-5.1 127.99-3.53 129.74-1.95 132.69-1.95L132.69-1.95Q135.79-1.95 137.69-3.5 139.59-5.05 139.59-8.3L139.59-8.3 139.59-18.15Q139.59-20.55 139.74-21.73 139.89-22.9 140.66-23.93 141.44-24.95 143.24-25.5L143.24-25.5 143.99-23.6Q142.29-22.85 142.29-20.1L142.29-20.1 142.29 3.05Q142.29 6.1 141.09 7.85 139.89 9.6 137.04 10.5L137.04 10.5 136.29 8.35Z" opacity="1" transform="matrix(1,0,0,1,0,0)" fill="black" class="slogan-text-1" id="SvgjsPath2944"></path></svg></g></svg></g></svg></g></svg></g><g transform="matrix(1,0,0,1,410.1104247866511,0)"><svg viewBox="0 0 183.3443266016682 158.36225360370267" height="158.36225360370267" width="183.3443266016682"><g><svg xmlns="http://www.w3.org/2000/svg" xmlns:xlink="http://www.w3.org/1999/xlink" version="1.1" x="0" y="0" viewBox="5 10.791 85.00000024073253 73.41809721596914" enable-background="new 0 0 95 95" xml:space="preserve" height="158.36225360370267" width="183.3443266016682" class="icon-icon-0" data-fill-palette-color="accent" id="SvgjsSvg2943"><g fill="black"><path d="M83.44 79.794L73.397 54.166H79.706A2.126 2.126 0 0 0 79.706 49.915H71.732L68.919 42.734A14.2 14.2 0 0 0 73.655 32.126C73.655 25.399 68.987 19.772 62.721 18.282V12.172C62.721 11.41 62.105 10.791 61.347 10.791H57.497C56.735 10.791 56.121 11.41 56.121 12.172V18.282C49.851 19.772 45.185 25.4 45.185 32.126A14.2 14.2 0 0 0 49.754 42.579L46.88 49.915H38.96A2.126 2.126 0 0 0 38.96 54.166H45.216L35.17 79.794C33.128 85.346 33.898 85.712 36.881 80.607L51.136 54.166H54.229A5.3 5.3 0 0 0 59.337 58.062C61.772 58.062 63.823 56.409 64.44 54.166H67.472L81.729 80.607C84.712 85.712 85.484 85.346 83.44 79.794M59.419 23.657A8.47 8.47 0 0 1 67.891 32.127 8.47 8.47 0 0 1 63.49 39.56L62.609 39.98A8.4 8.4 0 0 1 59.419 40.604C54.743 40.604 50.947 36.81 50.947 32.127 50.947 27.446 54.744 23.657 59.419 23.657M63.798 49.916A5.28 5.28 0 0 0 59.336 47.466 5.27 5.27 0 0 0 54.872 49.916H53.425L55.622 45.85A14.4 14.4 0 0 0 63.019 45.906L65.182 49.916z" fill="black"></path><path d="M10.088 22.674V73.06H84.912V22.674zM18.793 71.958H11.189V65.505H18.793zM18.793 65.432H11.189V58.612H18.793zM18.793 58.245H11.189V51.424H18.793zM18.793 51.351H11.189V44.384H18.793zM18.793 44.31H11.189V37.49H18.793zM18.793 37.123H11.189V30.302H18.793zM18.793 30.229H11.189V23.776H18.793zM26.985 71.958H18.867V65.505H26.985zM26.985 65.432H18.867V58.612H26.985zM26.985 58.245H18.867V51.424H26.985zM26.985 51.351H18.867V44.384H26.985zM26.985 44.31H18.867V37.49H26.985zM26.985 37.123H18.867V30.302H26.985zM18.867 23.776H26.985V30.229H18.867M34.662 71.958H27.058V65.505H34.662zM34.662 65.432H27.058V58.612H34.662zM34.662 58.245H27.058V51.424H34.662zM34.662 51.351H27.058V44.384H34.662zM34.662 44.31H27.058V37.49H34.662zM34.662 37.123H27.058V30.302H34.662zM34.662 30.229H27.058V23.776H34.662zM43.367 71.958H35.763V65.505H43.367zM43.367 65.432H35.763V58.612H43.367zM43.367 58.245H35.763V51.424H43.367zM43.367 51.351H35.763V44.384H43.367zM43.367 44.31H35.763V37.49H43.367zM43.367 37.123H35.763V30.302H43.367zM43.367 30.229H35.763V23.776H43.367zM51.559 71.958H43.441V65.505H51.559zM51.559 65.432H43.441V58.612H51.559zM51.559 58.245H43.441V51.424H51.559zM51.559 51.351H43.441V44.384H51.559zM51.559 44.31H43.441V37.49H51.559zM51.559 37.123H43.441V30.302H51.559zM51.559 30.229H43.441V23.776H51.559zM59.236 71.958H51.632V65.505H59.236zM59.236 65.432H51.632V58.612H59.236zM59.236 58.245H51.632V51.424H59.236zM59.236 51.351H51.632V44.384H59.236zM59.236 44.31H51.632V37.49H59.236zM59.236 37.123H51.632V30.302H59.236zM59.236 30.229H51.632V23.776H59.236zM67.942 71.958H60.338V65.505H67.942zM67.942 65.432H60.338V58.612H67.942zM67.942 58.245H60.338V51.424H67.942zM67.942 51.351H60.338V44.384H67.942zM67.942 44.31H60.338V37.49H67.942zM67.942 37.123H60.338V30.302H67.942zM67.942 30.229H60.338V23.776H67.942zM76.133 71.958H68.015V65.505H76.133zM76.133 65.432H68.015V58.612H76.133zM76.133 58.245H68.015V51.424H76.133zM76.133 51.351H68.015V44.384H76.133zM76.133 44.31H68.015V37.49H76.133zM76.133 37.123H68.015V30.302H76.133zM76.133 30.229H68.015V23.776H76.133zM83.811 71.958H76.207V65.505H83.811zM83.811 65.432H76.207V58.612H83.811zM83.811 58.245H76.207V51.424H83.811zM83.811 51.351H76.207V44.384H83.811zM83.811 44.31H76.207V37.49H83.811zM83.811 37.123H76.207V30.302H83.811zM83.811 30.229H76.207V23.776H83.811z" fill="black"></path><polygon points="43.232,75.792 42.243,77.627 76.369,77.627 75.379,75.792  " fill="black"></polygon><path d="M87.92 18.107H69.942A18 18 0 0 1 72.016 19.942H87.92C88.055 19.942 88.165 20.052 88.165 20.187V75.546C88.165 75.681 88.055 75.791 87.92 75.791H85.421L86.14 77.626H87.92C89.067 77.626 90 76.693 90 75.546V20.188A2.08 2.08 0 0 0 87.92 18.107" fill="black"></path><path d="M6.835 75.547V20.188C6.835 20.053 6.945 19.943 7.08 19.943H46.822A17.5 17.5 0 0 1 48.897 18.108H7.08A2.08 2.08 0 0 0 5 20.188V75.547C5 76.694 5.933 77.627 7.08 77.627H32.471L33.19 75.792H7.08A0.245 0.245 0 0 1 6.835 75.547" fill="black"></path></g></svg></g></svg></g></svg></g><defs><mask></mask></defs></svg><rect width="395.52" height="105.54374768894857" fill="black" stroke="none" visibility="hidden"></rect></g></mask></svg><rect width="395.52" height="105.54374768894857" fill="black" stroke="none" visibility="hidden"></rect></g></mask></svg><rect width="395.52" height="105.54374768894857" fill="black" stroke="none" visibility="hidden"></rect></g></mask><linearGradient x1="0" x2="1" y1="0.548" y2="0.55" id="f9395080-2e7d-4f83-89a9-4d471097ab07"><stop stop-color="#ff6cab" offset="0"></stop><stop stop-color="#7366ff" offset="1"></stop></linearGradient><rect width="395.52" height="105.54374768894857" fill="url(#f9395080-2e7d-4f83-89a9-4d471097ab07)" mask="url(#af43d932-a180-4224-bc8d-6ef9dc661e59)" data-fill-palette-color="accent"></rect></svg><rect width="395.52" height="105.54374768894857" fill="none" stroke="none" visibility="hidden"></rect></g></svg></g></svg>